%TF.GenerationSoftware,KiCad,Pcbnew,8.0.6*%
%TF.CreationDate,2024-11-10T21:08:49-06:00*%
%TF.ProjectId,micro_midi,6d696372-6f5f-46d6-9964-692e6b696361,rev?*%
%TF.SameCoordinates,Original*%
%TF.FileFunction,Soldermask,Bot*%
%TF.FilePolarity,Negative*%
%FSLAX46Y46*%
G04 Gerber Fmt 4.6, Leading zero omitted, Abs format (unit mm)*
G04 Created by KiCad (PCBNEW 8.0.6) date 2024-11-10 21:08:49*
%MOMM*%
%LPD*%
G01*
G04 APERTURE LIST*
%ADD10C,1.750000*%
%ADD11C,4.000000*%
%ADD12C,2.500000*%
%ADD13R,1.800000X1.800000*%
%ADD14C,1.800000*%
%ADD15O,3.101600X3.101600*%
%ADD16R,1.600000X1.600000*%
%ADD17O,1.600000X1.600000*%
%ADD18C,2.700000*%
%ADD19C,0.150000*%
%TA.AperFunction,Profile*%
%ADD20C,0.050000*%
%TD*%
G04 APERTURE END LIST*
D10*
%TO.C,S16*%
X241723076Y-115441549D03*
D11*
X246803076Y-115441549D03*
D10*
X251883076Y-115441549D03*
D12*
X242993076Y-112901549D03*
X249343076Y-110361549D03*
%TD*%
D13*
%TO.C,D18*%
X74083076Y-96709049D03*
D14*
X76623076Y-96709049D03*
%TD*%
D15*
%TO.C,C1*%
X56698076Y-69150049D03*
%TD*%
D13*
%TO.C,D24*%
X245533076Y-96709049D03*
D14*
X248073076Y-96709049D03*
%TD*%
D13*
%TO.C,D22*%
X188253076Y-96709049D03*
D14*
X190793076Y-96709049D03*
%TD*%
D13*
%TO.C,D30*%
X188253076Y-120521549D03*
D14*
X190793076Y-120521549D03*
%TD*%
D15*
%TO.C,L12*%
X127898076Y-69150049D03*
%TD*%
%TO.C,C2*%
X63818076Y-69150049D03*
%TD*%
D13*
%TO.C,D19*%
X102273076Y-96709049D03*
D14*
X104813076Y-96709049D03*
%TD*%
D15*
%TO.C,L2*%
X92298076Y-69150049D03*
%TD*%
%TO.C,R0*%
X53138076Y-74230049D03*
%TD*%
D10*
%TO.C,S12*%
X127163076Y-115441549D03*
D11*
X132243076Y-115441549D03*
D10*
X137323076Y-115441549D03*
D12*
X128433076Y-112901549D03*
X134783076Y-110361549D03*
%TD*%
D15*
%TO.C,L11*%
X124338076Y-74230049D03*
%TD*%
D13*
%TO.C,D20*%
X130973076Y-96709049D03*
D14*
X133513076Y-96709049D03*
%TD*%
D15*
%TO.C,L5*%
X102978076Y-74230049D03*
%TD*%
D13*
%TO.C,D25*%
X45503076Y-120521549D03*
D14*
X48043076Y-120521549D03*
%TD*%
D10*
%TO.C,S1*%
X41693076Y-91629049D03*
D11*
X46773076Y-91629049D03*
D10*
X51853076Y-91629049D03*
D12*
X42963076Y-89089049D03*
X49313076Y-86549049D03*
%TD*%
D10*
%TO.C,S8*%
X241723076Y-91629049D03*
D11*
X246803076Y-91629049D03*
D10*
X251883076Y-91629049D03*
D12*
X242993076Y-89089049D03*
X249343076Y-86549049D03*
%TD*%
D10*
%TO.C,S10*%
X70273076Y-115441549D03*
D11*
X75353076Y-115441549D03*
D10*
X80433076Y-115441549D03*
D12*
X71543076Y-112901549D03*
X77893076Y-110361549D03*
%TD*%
D13*
%TO.C,D27*%
X102273076Y-120521549D03*
D14*
X104813076Y-120521549D03*
%TD*%
D13*
%TO.C,D31*%
X216573076Y-120521549D03*
D14*
X219113076Y-120521549D03*
%TD*%
D15*
%TO.C,L1*%
X88738076Y-74230049D03*
%TD*%
%TO.C,L0*%
X85178076Y-69150049D03*
%TD*%
D10*
%TO.C,S15*%
X212763076Y-115441549D03*
D11*
X217843076Y-115441549D03*
D10*
X222923076Y-115441549D03*
D12*
X214033076Y-112901549D03*
X220383076Y-110361549D03*
%TD*%
D15*
%TO.C,L10*%
X120778076Y-69150049D03*
%TD*%
%TO.C,L4*%
X99418076Y-69150049D03*
%TD*%
%TO.C,C3*%
X70938076Y-69150049D03*
%TD*%
D10*
%TO.C,S2*%
X70273076Y-91629049D03*
D11*
X75353076Y-91629049D03*
D10*
X80433076Y-91629049D03*
D12*
X71543076Y-89089049D03*
X77893076Y-86549049D03*
%TD*%
D10*
%TO.C,S5*%
X155743076Y-91629049D03*
D11*
X160823076Y-91629049D03*
D10*
X165903076Y-91629049D03*
D12*
X157013076Y-89089049D03*
X163363076Y-86549049D03*
%TD*%
D15*
%TO.C,L8*%
X113658076Y-69150049D03*
%TD*%
%TO.C,L13*%
X131458076Y-74230049D03*
%TD*%
D10*
%TO.C,S7*%
X212763076Y-91629049D03*
D11*
X217843076Y-91629049D03*
D10*
X222923076Y-91629049D03*
D12*
X214033076Y-89089049D03*
X220383076Y-86549049D03*
%TD*%
D15*
%TO.C,R1*%
X60258076Y-74230049D03*
%TD*%
%TO.C,L6*%
X106538076Y-69150049D03*
%TD*%
%TO.C,L7*%
X110098076Y-74230049D03*
%TD*%
%TO.C,R2*%
X67378076Y-74230049D03*
%TD*%
D10*
%TO.C,S4*%
X127163076Y-91629049D03*
D11*
X132243076Y-91629049D03*
D10*
X137323076Y-91629049D03*
D12*
X128433076Y-89089049D03*
X134783076Y-86549049D03*
%TD*%
D10*
%TO.C,S13*%
X155743076Y-115441549D03*
D11*
X160823076Y-115441549D03*
D10*
X165903076Y-115441549D03*
D12*
X157013076Y-112901549D03*
X163363076Y-110361549D03*
%TD*%
D15*
%TO.C,L15*%
X138578076Y-74230049D03*
%TD*%
%TO.C,GND1*%
X142138076Y-69150049D03*
%TD*%
D10*
%TO.C,S14*%
X184443076Y-115441549D03*
D11*
X189523076Y-115441549D03*
D10*
X194603076Y-115441549D03*
D12*
X185713076Y-112901549D03*
X192063076Y-110361549D03*
%TD*%
D15*
%TO.C,C0*%
X49578076Y-69150049D03*
%TD*%
D10*
%TO.C,S3*%
X98463076Y-91629049D03*
D11*
X103543076Y-91629049D03*
D10*
X108623076Y-91629049D03*
D12*
X99733076Y-89089049D03*
X106083076Y-86549049D03*
%TD*%
D13*
%TO.C,D28*%
X130973076Y-120521549D03*
D14*
X133513076Y-120521549D03*
%TD*%
D13*
%TO.C,D26*%
X74083076Y-120521549D03*
D14*
X76623076Y-120521549D03*
%TD*%
D13*
%TO.C,D21*%
X159553076Y-96709049D03*
D14*
X162093076Y-96709049D03*
%TD*%
D15*
%TO.C,R3*%
X74498076Y-74230049D03*
%TD*%
D13*
%TO.C,D23*%
X216573076Y-96709049D03*
D14*
X219113076Y-96709049D03*
%TD*%
D15*
%TO.C,L14*%
X135018076Y-69150049D03*
%TD*%
D13*
%TO.C,D17*%
X45503076Y-96709049D03*
D14*
X48043076Y-96709049D03*
%TD*%
D13*
%TO.C,D32*%
X245533076Y-120521549D03*
D14*
X248073076Y-120521549D03*
%TD*%
D10*
%TO.C,S9*%
X41693076Y-115441549D03*
D11*
X46773076Y-115441549D03*
D10*
X51853076Y-115441549D03*
D12*
X42963076Y-112901549D03*
X49313076Y-110361549D03*
%TD*%
D10*
%TO.C,S11*%
X98463076Y-115441549D03*
D11*
X103543076Y-115441549D03*
D10*
X108623076Y-115441549D03*
D12*
X99733076Y-112901549D03*
X106083076Y-110361549D03*
%TD*%
D10*
%TO.C,S6*%
X184443076Y-91629049D03*
D11*
X189523076Y-91629049D03*
D10*
X194603076Y-91629049D03*
D12*
X185713076Y-89089049D03*
X192063076Y-86549049D03*
%TD*%
D15*
%TO.C,L3*%
X95858076Y-74230049D03*
%TD*%
D13*
%TO.C,D29*%
X159553076Y-120521549D03*
D14*
X162093076Y-120521549D03*
%TD*%
D15*
%TO.C,L9*%
X117218076Y-74230049D03*
%TD*%
D16*
%TO.C,D2*%
X84878076Y-95536549D03*
D17*
X84878076Y-87916549D03*
%TD*%
D16*
%TO.C,D7*%
X227378076Y-95536549D03*
D17*
X227378076Y-87916549D03*
%TD*%
D16*
%TO.C,D9*%
X56298076Y-119349049D03*
D17*
X56298076Y-111729049D03*
%TD*%
D16*
%TO.C,D1*%
X56298076Y-95536549D03*
D17*
X56298076Y-87916549D03*
%TD*%
D16*
%TO.C,D5*%
X170348076Y-95536549D03*
D17*
X170348076Y-87916549D03*
%TD*%
D16*
%TO.C,D10*%
X84878076Y-119349049D03*
D17*
X84878076Y-111729049D03*
%TD*%
D16*
%TO.C,D15*%
X227378076Y-119349049D03*
D17*
X227378076Y-111729049D03*
%TD*%
D16*
%TO.C,D8*%
X255328076Y-95536549D03*
D17*
X255328076Y-87916549D03*
%TD*%
D16*
%TO.C,D3*%
X113068076Y-95536549D03*
D17*
X113068076Y-87916549D03*
%TD*%
D16*
%TO.C,D4*%
X141768076Y-95536549D03*
D17*
X141768076Y-87916549D03*
%TD*%
D16*
%TO.C,D13*%
X170348076Y-119349049D03*
D17*
X170348076Y-111729049D03*
%TD*%
D16*
%TO.C,D6*%
X199048076Y-95536549D03*
D17*
X199048076Y-87916549D03*
%TD*%
D16*
%TO.C,D16*%
X255328076Y-119349049D03*
D17*
X255328076Y-111729049D03*
%TD*%
D16*
%TO.C,D11*%
X113068076Y-119349049D03*
D17*
X113068076Y-111729049D03*
%TD*%
D16*
%TO.C,D14*%
X199048076Y-119349049D03*
D17*
X199048076Y-111729049D03*
%TD*%
D16*
%TO.C,D12*%
X141768076Y-119349049D03*
D17*
X141768076Y-111729049D03*
%TD*%
D18*
%TO.C,REF\u002A\u002A*%
X203683076Y-103535549D03*
%TD*%
%TO.C,REF\u002A\u002A*%
X146533076Y-103535549D03*
%TD*%
%TO.C,REF\u002A\u002A*%
X89448076Y-103535549D03*
%TD*%
%TO.C,REF\u002A\u002A*%
X41663076Y-71334049D03*
%TD*%
%TO.C,REF\u002A\u002A*%
X252003076Y-71334049D03*
%TD*%
%TO.C,REF\u002A\u002A*%
X252003076Y-130966049D03*
%TD*%
%TO.C,REF\u002A\u002A*%
X41643076Y-130986049D03*
%TD*%
D19*
%TO.C,REF\u002A\u002A*%
X206383076Y-103535549D02*
G75*
G02*
X200983076Y-103535549I-2700000J0D01*
G01*
X200983076Y-103535549D02*
G75*
G02*
X206383076Y-103535549I2700000J0D01*
G01*
X149233076Y-103535549D02*
G75*
G02*
X143833076Y-103535549I-2700000J0D01*
G01*
X143833076Y-103535549D02*
G75*
G02*
X149233076Y-103535549I2700000J0D01*
G01*
X92148076Y-103535549D02*
G75*
G02*
X86748076Y-103535549I-2700000J0D01*
G01*
X86748076Y-103535549D02*
G75*
G02*
X92148076Y-103535549I2700000J0D01*
G01*
X44363076Y-71334049D02*
G75*
G02*
X38963076Y-71334049I-2700000J0D01*
G01*
X38963076Y-71334049D02*
G75*
G02*
X44363076Y-71334049I2700000J0D01*
G01*
X254703076Y-71334049D02*
G75*
G02*
X249303076Y-71334049I-2700000J0D01*
G01*
X249303076Y-71334049D02*
G75*
G02*
X254703076Y-71334049I2700000J0D01*
G01*
X254703076Y-130966049D02*
G75*
G02*
X249303076Y-130966049I-2700000J0D01*
G01*
X249303076Y-130966049D02*
G75*
G02*
X254703076Y-130966049I2700000J0D01*
G01*
X44343076Y-130986049D02*
G75*
G02*
X38943076Y-130986049I-2700000J0D01*
G01*
X38943076Y-130986049D02*
G75*
G02*
X44343076Y-130986049I2700000J0D01*
G01*
%TD*%
D20*
X35663076Y-65334049D02*
X257913076Y-65334049D01*
X257913076Y-136966049D01*
X35663076Y-136966049D01*
X35663076Y-65334049D01*
M02*
