M48
; DRILL file {KiCad 8.0.6} date 2024-11-10T21:08:50-0600
; FORMAT={-:-/ absolute / metric / decimal}
; #@! TF.CreationDate,2024-11-10T21:08:50-06:00
; #@! TF.GenerationSoftware,Kicad,Pcbnew,8.0.6
; #@! TF.FileFunction,Plated,1,2,PTH
FMAT,2
METRIC
; #@! TA.AperFunction,Plated,PTH,ViaDrill
T1C0.300
; #@! TA.AperFunction,Plated,PTH,ComponentDrill
T2C0.800
; #@! TA.AperFunction,Plated,PTH,ComponentDrill
T3C0.900
; #@! TA.AperFunction,Plated,PTH,ComponentDrill
T4C1.500
; #@! TA.AperFunction,Plated,PTH,ComponentDrill
T5C1.700
%
G90
G05
T1
X84.803Y-80.291
X94.782Y-79.845
X103.091Y-82.691
X108.776Y-82.691
X109.989Y-80.291
X111.174Y-80.291
X124.15Y-80.291
X125.696Y-82.691
X126.624Y-80.291
X126.632Y-82.691
X132.169Y-80.291
X133.295Y-80.291
X134.983Y-80.116
X135.476Y-83.597
X135.893Y-80.153
X136.071Y-83.063
X136.63Y-82.491
X137.33Y-81.892
X146.837Y-125.195
X147.516Y-124.586
X148.14Y-123.961
X148.604Y-125.195
X149.271Y-124.577
X149.837Y-123.961
X172.696Y-124.577
X173.332Y-123.963
X174.677Y-124.583
X175.098Y-123.903
X201.598Y-123.965
X203.354Y-123.967
T2
X56.298Y-87.917
X56.298Y-95.537
X56.298Y-111.729
X56.298Y-119.349
X84.878Y-87.917
X84.878Y-95.537
X84.878Y-111.729
X84.878Y-119.349
X113.068Y-87.917
X113.068Y-95.537
X113.068Y-111.729
X113.068Y-119.349
X141.768Y-87.917
X141.768Y-95.537
X141.768Y-111.729
X141.768Y-119.349
X170.348Y-87.917
X170.348Y-95.537
X170.348Y-111.729
X170.348Y-119.349
X199.048Y-87.917
X199.048Y-95.537
X199.048Y-111.729
X199.048Y-119.349
X227.378Y-87.917
X227.378Y-95.537
X227.378Y-111.729
X227.378Y-119.349
X255.328Y-87.917
X255.328Y-95.537
X255.328Y-111.729
X255.328Y-119.349
T3
X45.503Y-96.709
X45.503Y-120.522
X48.043Y-96.709
X48.043Y-120.522
X74.083Y-96.709
X74.083Y-120.522
X76.623Y-96.709
X76.623Y-120.522
X102.273Y-96.709
X102.273Y-120.522
X104.813Y-96.709
X104.813Y-120.522
X130.973Y-96.709
X130.973Y-120.522
X133.513Y-96.709
X133.513Y-120.522
X159.553Y-96.709
X159.553Y-120.522
X162.093Y-96.709
X162.093Y-120.522
X188.253Y-96.709
X188.253Y-120.522
X190.793Y-96.709
X190.793Y-120.522
X216.573Y-96.709
X216.573Y-120.522
X219.113Y-96.709
X219.113Y-120.522
X245.533Y-96.709
X245.533Y-120.522
X248.073Y-96.709
X248.073Y-120.522
T4
X42.963Y-89.089
X42.963Y-112.902
X49.313Y-86.549
X49.313Y-110.362
X71.543Y-89.089
X71.543Y-112.902
X77.893Y-86.549
X77.893Y-110.362
X99.733Y-89.089
X99.733Y-112.902
X106.083Y-86.549
X106.083Y-110.362
X128.433Y-89.089
X128.433Y-112.902
X134.783Y-86.549
X134.783Y-110.362
X157.013Y-89.089
X157.013Y-112.902
X163.363Y-86.549
X163.363Y-110.362
X185.713Y-89.089
X185.713Y-112.902
X192.063Y-86.549
X192.063Y-110.362
X214.033Y-89.089
X214.033Y-112.902
X220.383Y-86.549
X220.383Y-110.362
X242.993Y-89.089
X242.993Y-112.902
X249.343Y-86.549
X249.343Y-110.362
T5
X49.578Y-69.15
X53.138Y-74.23
X56.698Y-69.15
X60.258Y-74.23
X63.818Y-69.15
X67.378Y-74.23
X70.938Y-69.15
X74.498Y-74.23
X85.178Y-69.15
X88.738Y-74.23
X92.298Y-69.15
X95.858Y-74.23
X99.418Y-69.15
X102.978Y-74.23
X106.538Y-69.15
X110.098Y-74.23
X113.658Y-69.15
X117.218Y-74.23
X120.778Y-69.15
X124.338Y-74.23
X127.898Y-69.15
X131.458Y-74.23
X135.018Y-69.15
X138.578Y-74.23
X142.138Y-69.15
M30
