M48
; DRILL file {KiCad 8.0.6} date 2024-11-10T21:08:50-0600
; FORMAT={-:-/ absolute / metric / decimal}
; #@! TF.CreationDate,2024-11-10T21:08:50-06:00
; #@! TF.GenerationSoftware,Kicad,Pcbnew,8.0.6
; #@! TF.FileFunction,NonPlated,1,2,NPTH
FMAT,2
METRIC
; #@! TA.AperFunction,NonPlated,NPTH,ComponentDrill
T1C1.750
; #@! TA.AperFunction,NonPlated,NPTH,ComponentDrill
T2C2.700
; #@! TA.AperFunction,NonPlated,NPTH,ComponentDrill
T3C4.000
%
G90
G05
T1
X41.693Y-91.629
X41.693Y-115.442
X51.853Y-91.629
X51.853Y-115.442
X70.273Y-91.629
X70.273Y-115.442
X80.433Y-91.629
X80.433Y-115.442
X98.463Y-91.629
X98.463Y-115.442
X108.623Y-91.629
X108.623Y-115.442
X127.163Y-91.629
X127.163Y-115.442
X137.323Y-91.629
X137.323Y-115.442
X155.743Y-91.629
X155.743Y-115.442
X165.903Y-91.629
X165.903Y-115.442
X184.443Y-91.629
X184.443Y-115.442
X194.603Y-91.629
X194.603Y-115.442
X212.763Y-91.629
X212.763Y-115.442
X222.923Y-91.629
X222.923Y-115.442
X241.723Y-91.629
X241.723Y-115.442
X251.883Y-91.629
X251.883Y-115.442
T2
X41.643Y-130.986
X41.663Y-71.334
X89.448Y-103.536
X146.533Y-103.536
X203.683Y-103.536
X252.003Y-71.334
X252.003Y-130.966
T3
X46.773Y-91.629
X46.773Y-115.442
X75.353Y-91.629
X75.353Y-115.442
X103.543Y-91.629
X103.543Y-115.442
X132.243Y-91.629
X132.243Y-115.442
X160.823Y-91.629
X160.823Y-115.442
X189.523Y-91.629
X189.523Y-115.442
X217.843Y-91.629
X217.843Y-115.442
X246.803Y-91.629
X246.803Y-115.442
M30
