%TF.GenerationSoftware,KiCad,Pcbnew,8.0.6*%
%TF.CreationDate,2024-11-10T21:08:51-06:00*%
%TF.ProjectId,micro_midi,6d696372-6f5f-46d6-9964-692e6b696361,rev?*%
%TF.SameCoordinates,Original*%
%TF.FileFunction,Drillmap*%
%TF.FilePolarity,Positive*%
%FSLAX45Y45*%
G04 Gerber Fmt 4.5, Leading zero omitted, Abs format (unit mm)*
G04 Created by KiCad (PCBNEW 8.0.6) date 2024-11-10 21:08:51*
%MOMM*%
%LPD*%
G01*
G04 APERTURE LIST*
%ADD10C,0.050000*%
%ADD11C,0.200000*%
%ADD12C,0.100000*%
%ADD13C,0.150000*%
%ADD14C,0.170000*%
G04 APERTURE END LIST*
D10*
X3566308Y-6533405D02*
X25791308Y-6533405D01*
X25791308Y-13696605D01*
X3566308Y-13696605D01*
X3566308Y-6533405D01*
D11*
D12*
X8465308Y-8014057D02*
X8495308Y-8044057D01*
X8495308Y-8014057D02*
X8465308Y-8044057D01*
X9463189Y-7969487D02*
X9493189Y-7999487D01*
X9493189Y-7969487D02*
X9463189Y-7999487D01*
X10294100Y-8254057D02*
X10324100Y-8284057D01*
X10324100Y-8254057D02*
X10294100Y-8284057D01*
X10862595Y-8254057D02*
X10892595Y-8284057D01*
X10892595Y-8254057D02*
X10862595Y-8284057D01*
X10983901Y-8014057D02*
X11013901Y-8044057D01*
X11013901Y-8014057D02*
X10983901Y-8044057D01*
X11102371Y-8014057D02*
X11132371Y-8044057D01*
X11132371Y-8014057D02*
X11102371Y-8044057D01*
X12399968Y-8014057D02*
X12429968Y-8044057D01*
X12429968Y-8014057D02*
X12399968Y-8044057D01*
X12554595Y-8254057D02*
X12584595Y-8284057D01*
X12584595Y-8254057D02*
X12554595Y-8284057D01*
X12647418Y-8014057D02*
X12677418Y-8044057D01*
X12677418Y-8014057D02*
X12647418Y-8044057D01*
X12648157Y-8254057D02*
X12678157Y-8284057D01*
X12678157Y-8254057D02*
X12648157Y-8284057D01*
X13201948Y-8014057D02*
X13231948Y-8044057D01*
X13231948Y-8014057D02*
X13201948Y-8044057D01*
X13314514Y-8014057D02*
X13344514Y-8044057D01*
X13344514Y-8014057D02*
X13314514Y-8044057D01*
X13483308Y-7996556D02*
X13513308Y-8026556D01*
X13513308Y-7996556D02*
X13483308Y-8026556D01*
X13532573Y-8344682D02*
X13562573Y-8374682D01*
X13562573Y-8344682D02*
X13532573Y-8374682D01*
X13574308Y-8000305D02*
X13604308Y-8030305D01*
X13604308Y-8000305D02*
X13574308Y-8030305D01*
X13592136Y-8291275D02*
X13622136Y-8321275D01*
X13622136Y-8291275D02*
X13592136Y-8321275D01*
X13648047Y-8234057D02*
X13678047Y-8264057D01*
X13678047Y-8234057D02*
X13648047Y-8264057D01*
X13717963Y-8174169D02*
X13747963Y-8204169D01*
X13747963Y-8174169D02*
X13717963Y-8204169D01*
X14668694Y-12504483D02*
X14698694Y-12534483D01*
X14698694Y-12504483D02*
X14668694Y-12534483D01*
X14736568Y-12443575D02*
X14766568Y-12473575D01*
X14766568Y-12443575D02*
X14736568Y-12473575D01*
X14799026Y-12381120D02*
X14829026Y-12411120D01*
X14829026Y-12381120D02*
X14799026Y-12411120D01*
X14845363Y-12504483D02*
X14875363Y-12534483D01*
X14875363Y-12504483D02*
X14845363Y-12534483D01*
X14912083Y-12442663D02*
X14942083Y-12472663D01*
X14942083Y-12442663D02*
X14912083Y-12472663D01*
X14968728Y-12381120D02*
X14998728Y-12411120D01*
X14998728Y-12381120D02*
X14968728Y-12411120D01*
X17254642Y-12442663D02*
X17284642Y-12472663D01*
X17284642Y-12442663D02*
X17254642Y-12472663D01*
X17318214Y-12381343D02*
X17348214Y-12411343D01*
X17348214Y-12381343D02*
X17318214Y-12411343D01*
X17452697Y-12443342D02*
X17482697Y-12473342D01*
X17482697Y-12443342D02*
X17452697Y-12473342D01*
X17494773Y-12375301D02*
X17524773Y-12405301D01*
X17524773Y-12375301D02*
X17494773Y-12405301D01*
X20144766Y-12381518D02*
X20174766Y-12411518D01*
X20174766Y-12381518D02*
X20144766Y-12411518D01*
X20320395Y-12381679D02*
X20350395Y-12411679D01*
X20350395Y-12381679D02*
X20320395Y-12411679D01*
X5669808Y-8791655D02*
G75*
G02*
X5589808Y-8791655I-40000J0D01*
G01*
X5589808Y-8791655D02*
G75*
G02*
X5669808Y-8791655I40000J0D01*
G01*
X5669808Y-9553655D02*
G75*
G02*
X5589808Y-9553655I-40000J0D01*
G01*
X5589808Y-9553655D02*
G75*
G02*
X5669808Y-9553655I40000J0D01*
G01*
X5669808Y-11172905D02*
G75*
G02*
X5589808Y-11172905I-40000J0D01*
G01*
X5589808Y-11172905D02*
G75*
G02*
X5669808Y-11172905I40000J0D01*
G01*
X5669808Y-11934905D02*
G75*
G02*
X5589808Y-11934905I-40000J0D01*
G01*
X5589808Y-11934905D02*
G75*
G02*
X5669808Y-11934905I40000J0D01*
G01*
X8527808Y-8791655D02*
G75*
G02*
X8447808Y-8791655I-40000J0D01*
G01*
X8447808Y-8791655D02*
G75*
G02*
X8527808Y-8791655I40000J0D01*
G01*
X8527808Y-9553655D02*
G75*
G02*
X8447808Y-9553655I-40000J0D01*
G01*
X8447808Y-9553655D02*
G75*
G02*
X8527808Y-9553655I40000J0D01*
G01*
X8527808Y-11172905D02*
G75*
G02*
X8447808Y-11172905I-40000J0D01*
G01*
X8447808Y-11172905D02*
G75*
G02*
X8527808Y-11172905I40000J0D01*
G01*
X8527808Y-11934905D02*
G75*
G02*
X8447808Y-11934905I-40000J0D01*
G01*
X8447808Y-11934905D02*
G75*
G02*
X8527808Y-11934905I40000J0D01*
G01*
X11346808Y-8791655D02*
G75*
G02*
X11266808Y-8791655I-40000J0D01*
G01*
X11266808Y-8791655D02*
G75*
G02*
X11346808Y-8791655I40000J0D01*
G01*
X11346808Y-9553655D02*
G75*
G02*
X11266808Y-9553655I-40000J0D01*
G01*
X11266808Y-9553655D02*
G75*
G02*
X11346808Y-9553655I40000J0D01*
G01*
X11346808Y-11172905D02*
G75*
G02*
X11266808Y-11172905I-40000J0D01*
G01*
X11266808Y-11172905D02*
G75*
G02*
X11346808Y-11172905I40000J0D01*
G01*
X11346808Y-11934905D02*
G75*
G02*
X11266808Y-11934905I-40000J0D01*
G01*
X11266808Y-11934905D02*
G75*
G02*
X11346808Y-11934905I40000J0D01*
G01*
X14216808Y-8791655D02*
G75*
G02*
X14136808Y-8791655I-40000J0D01*
G01*
X14136808Y-8791655D02*
G75*
G02*
X14216808Y-8791655I40000J0D01*
G01*
X14216808Y-9553655D02*
G75*
G02*
X14136808Y-9553655I-40000J0D01*
G01*
X14136808Y-9553655D02*
G75*
G02*
X14216808Y-9553655I40000J0D01*
G01*
X14216808Y-11172905D02*
G75*
G02*
X14136808Y-11172905I-40000J0D01*
G01*
X14136808Y-11172905D02*
G75*
G02*
X14216808Y-11172905I40000J0D01*
G01*
X14216808Y-11934905D02*
G75*
G02*
X14136808Y-11934905I-40000J0D01*
G01*
X14136808Y-11934905D02*
G75*
G02*
X14216808Y-11934905I40000J0D01*
G01*
X17074808Y-8791655D02*
G75*
G02*
X16994808Y-8791655I-40000J0D01*
G01*
X16994808Y-8791655D02*
G75*
G02*
X17074808Y-8791655I40000J0D01*
G01*
X17074808Y-9553655D02*
G75*
G02*
X16994808Y-9553655I-40000J0D01*
G01*
X16994808Y-9553655D02*
G75*
G02*
X17074808Y-9553655I40000J0D01*
G01*
X17074808Y-11172905D02*
G75*
G02*
X16994808Y-11172905I-40000J0D01*
G01*
X16994808Y-11172905D02*
G75*
G02*
X17074808Y-11172905I40000J0D01*
G01*
X17074808Y-11934905D02*
G75*
G02*
X16994808Y-11934905I-40000J0D01*
G01*
X16994808Y-11934905D02*
G75*
G02*
X17074808Y-11934905I40000J0D01*
G01*
X19944808Y-8791655D02*
G75*
G02*
X19864808Y-8791655I-40000J0D01*
G01*
X19864808Y-8791655D02*
G75*
G02*
X19944808Y-8791655I40000J0D01*
G01*
X19944808Y-9553655D02*
G75*
G02*
X19864808Y-9553655I-40000J0D01*
G01*
X19864808Y-9553655D02*
G75*
G02*
X19944808Y-9553655I40000J0D01*
G01*
X19944808Y-11172905D02*
G75*
G02*
X19864808Y-11172905I-40000J0D01*
G01*
X19864808Y-11172905D02*
G75*
G02*
X19944808Y-11172905I40000J0D01*
G01*
X19944808Y-11934905D02*
G75*
G02*
X19864808Y-11934905I-40000J0D01*
G01*
X19864808Y-11934905D02*
G75*
G02*
X19944808Y-11934905I40000J0D01*
G01*
X22777808Y-8791655D02*
G75*
G02*
X22697808Y-8791655I-40000J0D01*
G01*
X22697808Y-8791655D02*
G75*
G02*
X22777808Y-8791655I40000J0D01*
G01*
X22777808Y-9553655D02*
G75*
G02*
X22697808Y-9553655I-40000J0D01*
G01*
X22697808Y-9553655D02*
G75*
G02*
X22777808Y-9553655I40000J0D01*
G01*
X22777808Y-11172905D02*
G75*
G02*
X22697808Y-11172905I-40000J0D01*
G01*
X22697808Y-11172905D02*
G75*
G02*
X22777808Y-11172905I40000J0D01*
G01*
X22777808Y-11934905D02*
G75*
G02*
X22697808Y-11934905I-40000J0D01*
G01*
X22697808Y-11934905D02*
G75*
G02*
X22777808Y-11934905I40000J0D01*
G01*
X25572808Y-8791655D02*
G75*
G02*
X25492808Y-8791655I-40000J0D01*
G01*
X25492808Y-8791655D02*
G75*
G02*
X25572808Y-8791655I40000J0D01*
G01*
X25572808Y-9553655D02*
G75*
G02*
X25492808Y-9553655I-40000J0D01*
G01*
X25492808Y-9553655D02*
G75*
G02*
X25572808Y-9553655I40000J0D01*
G01*
X25572808Y-11172905D02*
G75*
G02*
X25492808Y-11172905I-40000J0D01*
G01*
X25492808Y-11172905D02*
G75*
G02*
X25572808Y-11172905I40000J0D01*
G01*
X25572808Y-11934905D02*
G75*
G02*
X25492808Y-11934905I-40000J0D01*
G01*
X25492808Y-11934905D02*
G75*
G02*
X25572808Y-11934905I40000J0D01*
G01*
X4550308Y-9625905D02*
X4550308Y-9715905D01*
X4505308Y-9670905D02*
X4595308Y-9670905D01*
X4550308Y-12007155D02*
X4550308Y-12097155D01*
X4505308Y-12052155D02*
X4595308Y-12052155D01*
X4804308Y-9625905D02*
X4804308Y-9715905D01*
X4759308Y-9670905D02*
X4849308Y-9670905D01*
X4804308Y-12007155D02*
X4804308Y-12097155D01*
X4759308Y-12052155D02*
X4849308Y-12052155D01*
X7408308Y-9625905D02*
X7408308Y-9715905D01*
X7363308Y-9670905D02*
X7453308Y-9670905D01*
X7408308Y-12007155D02*
X7408308Y-12097155D01*
X7363308Y-12052155D02*
X7453308Y-12052155D01*
X7662308Y-9625905D02*
X7662308Y-9715905D01*
X7617308Y-9670905D02*
X7707308Y-9670905D01*
X7662308Y-12007155D02*
X7662308Y-12097155D01*
X7617308Y-12052155D02*
X7707308Y-12052155D01*
X10227308Y-9625905D02*
X10227308Y-9715905D01*
X10182308Y-9670905D02*
X10272308Y-9670905D01*
X10227308Y-12007155D02*
X10227308Y-12097155D01*
X10182308Y-12052155D02*
X10272308Y-12052155D01*
X10481308Y-9625905D02*
X10481308Y-9715905D01*
X10436308Y-9670905D02*
X10526308Y-9670905D01*
X10481308Y-12007155D02*
X10481308Y-12097155D01*
X10436308Y-12052155D02*
X10526308Y-12052155D01*
X13097308Y-9625905D02*
X13097308Y-9715905D01*
X13052308Y-9670905D02*
X13142308Y-9670905D01*
X13097308Y-12007155D02*
X13097308Y-12097155D01*
X13052308Y-12052155D02*
X13142308Y-12052155D01*
X13351308Y-9625905D02*
X13351308Y-9715905D01*
X13306308Y-9670905D02*
X13396308Y-9670905D01*
X13351308Y-12007155D02*
X13351308Y-12097155D01*
X13306308Y-12052155D02*
X13396308Y-12052155D01*
X15955308Y-9625905D02*
X15955308Y-9715905D01*
X15910308Y-9670905D02*
X16000308Y-9670905D01*
X15955308Y-12007155D02*
X15955308Y-12097155D01*
X15910308Y-12052155D02*
X16000308Y-12052155D01*
X16209308Y-9625905D02*
X16209308Y-9715905D01*
X16164308Y-9670905D02*
X16254308Y-9670905D01*
X16209308Y-12007155D02*
X16209308Y-12097155D01*
X16164308Y-12052155D02*
X16254308Y-12052155D01*
X18825308Y-9625905D02*
X18825308Y-9715905D01*
X18780308Y-9670905D02*
X18870308Y-9670905D01*
X18825308Y-12007155D02*
X18825308Y-12097155D01*
X18780308Y-12052155D02*
X18870308Y-12052155D01*
X19079308Y-9625905D02*
X19079308Y-9715905D01*
X19034308Y-9670905D02*
X19124308Y-9670905D01*
X19079308Y-12007155D02*
X19079308Y-12097155D01*
X19034308Y-12052155D02*
X19124308Y-12052155D01*
X21657308Y-9625905D02*
X21657308Y-9715905D01*
X21612308Y-9670905D02*
X21702308Y-9670905D01*
X21657308Y-12007155D02*
X21657308Y-12097155D01*
X21612308Y-12052155D02*
X21702308Y-12052155D01*
X21911308Y-9625905D02*
X21911308Y-9715905D01*
X21866308Y-9670905D02*
X21956308Y-9670905D01*
X21911308Y-12007155D02*
X21911308Y-12097155D01*
X21866308Y-12052155D02*
X21956308Y-12052155D01*
X24553308Y-9625905D02*
X24553308Y-9715905D01*
X24508308Y-9670905D02*
X24598308Y-9670905D01*
X24553308Y-12007155D02*
X24553308Y-12097155D01*
X24508308Y-12052155D02*
X24598308Y-12052155D01*
X24807308Y-9625905D02*
X24807308Y-9715905D01*
X24762308Y-9670905D02*
X24852308Y-9670905D01*
X24807308Y-12007155D02*
X24807308Y-12097155D01*
X24762308Y-12052155D02*
X24852308Y-12052155D01*
D13*
X4349341Y-8961938D02*
X4349341Y-8855871D01*
X4243274Y-8855871D01*
X4243274Y-8961938D01*
X4349341Y-8961938D01*
X4349341Y-11343188D02*
X4349341Y-11237121D01*
X4243274Y-11237121D01*
X4243274Y-11343188D01*
X4349341Y-11343188D01*
X4984341Y-8707938D02*
X4984341Y-8601871D01*
X4878274Y-8601871D01*
X4878274Y-8707938D01*
X4984341Y-8707938D01*
X4984341Y-11089188D02*
X4984341Y-10983121D01*
X4878274Y-10983121D01*
X4878274Y-11089188D01*
X4984341Y-11089188D01*
X7207341Y-8961938D02*
X7207341Y-8855871D01*
X7101274Y-8855871D01*
X7101274Y-8961938D01*
X7207341Y-8961938D01*
X7207341Y-11343188D02*
X7207341Y-11237121D01*
X7101274Y-11237121D01*
X7101274Y-11343188D01*
X7207341Y-11343188D01*
X7842341Y-8707938D02*
X7842341Y-8601871D01*
X7736274Y-8601871D01*
X7736274Y-8707938D01*
X7842341Y-8707938D01*
X7842341Y-11089188D02*
X7842341Y-10983121D01*
X7736274Y-10983121D01*
X7736274Y-11089188D01*
X7842341Y-11089188D01*
X10026341Y-8961938D02*
X10026341Y-8855871D01*
X9920274Y-8855871D01*
X9920274Y-8961938D01*
X10026341Y-8961938D01*
X10026341Y-11343188D02*
X10026341Y-11237121D01*
X9920274Y-11237121D01*
X9920274Y-11343188D01*
X10026341Y-11343188D01*
X10661341Y-8707938D02*
X10661341Y-8601871D01*
X10555274Y-8601871D01*
X10555274Y-8707938D01*
X10661341Y-8707938D01*
X10661341Y-11089188D02*
X10661341Y-10983121D01*
X10555274Y-10983121D01*
X10555274Y-11089188D01*
X10661341Y-11089188D01*
X12896341Y-8961938D02*
X12896341Y-8855871D01*
X12790274Y-8855871D01*
X12790274Y-8961938D01*
X12896341Y-8961938D01*
X12896341Y-11343188D02*
X12896341Y-11237121D01*
X12790274Y-11237121D01*
X12790274Y-11343188D01*
X12896341Y-11343188D01*
X13531341Y-8707938D02*
X13531341Y-8601871D01*
X13425274Y-8601871D01*
X13425274Y-8707938D01*
X13531341Y-8707938D01*
X13531341Y-11089188D02*
X13531341Y-10983121D01*
X13425274Y-10983121D01*
X13425274Y-11089188D01*
X13531341Y-11089188D01*
X15754341Y-8961938D02*
X15754341Y-8855871D01*
X15648274Y-8855871D01*
X15648274Y-8961938D01*
X15754341Y-8961938D01*
X15754341Y-11343188D02*
X15754341Y-11237121D01*
X15648274Y-11237121D01*
X15648274Y-11343188D01*
X15754341Y-11343188D01*
X16389341Y-8707938D02*
X16389341Y-8601871D01*
X16283274Y-8601871D01*
X16283274Y-8707938D01*
X16389341Y-8707938D01*
X16389341Y-11089188D02*
X16389341Y-10983121D01*
X16283274Y-10983121D01*
X16283274Y-11089188D01*
X16389341Y-11089188D01*
X18624341Y-8961938D02*
X18624341Y-8855871D01*
X18518274Y-8855871D01*
X18518274Y-8961938D01*
X18624341Y-8961938D01*
X18624341Y-11343188D02*
X18624341Y-11237121D01*
X18518274Y-11237121D01*
X18518274Y-11343188D01*
X18624341Y-11343188D01*
X19259341Y-8707938D02*
X19259341Y-8601871D01*
X19153274Y-8601871D01*
X19153274Y-8707938D01*
X19259341Y-8707938D01*
X19259341Y-11089188D02*
X19259341Y-10983121D01*
X19153274Y-10983121D01*
X19153274Y-11089188D01*
X19259341Y-11089188D01*
X21456341Y-8961938D02*
X21456341Y-8855871D01*
X21350274Y-8855871D01*
X21350274Y-8961938D01*
X21456341Y-8961938D01*
X21456341Y-11343188D02*
X21456341Y-11237121D01*
X21350274Y-11237121D01*
X21350274Y-11343188D01*
X21456341Y-11343188D01*
X22091341Y-8707938D02*
X22091341Y-8601871D01*
X21985274Y-8601871D01*
X21985274Y-8707938D01*
X22091341Y-8707938D01*
X22091341Y-11089188D02*
X22091341Y-10983121D01*
X21985274Y-10983121D01*
X21985274Y-11089188D01*
X22091341Y-11089188D01*
X24352341Y-8961938D02*
X24352341Y-8855871D01*
X24246274Y-8855871D01*
X24246274Y-8961938D01*
X24352341Y-8961938D01*
X24352341Y-11343188D02*
X24352341Y-11237121D01*
X24246274Y-11237121D01*
X24246274Y-11343188D01*
X24352341Y-11343188D01*
X24987341Y-8707938D02*
X24987341Y-8601871D01*
X24881274Y-8601871D01*
X24881274Y-8707938D01*
X24987341Y-8707938D01*
X24987341Y-11089188D02*
X24987341Y-10983121D01*
X24881274Y-10983121D01*
X24881274Y-11089188D01*
X24987341Y-11089188D01*
D14*
X4957808Y-7000005D02*
X5042808Y-6915005D01*
X4957808Y-6830005D01*
X4872808Y-6915005D01*
X4957808Y-7000005D01*
X5313808Y-7508005D02*
X5398808Y-7423005D01*
X5313808Y-7338005D01*
X5228808Y-7423005D01*
X5313808Y-7508005D01*
X5669808Y-7000005D02*
X5754808Y-6915005D01*
X5669808Y-6830005D01*
X5584808Y-6915005D01*
X5669808Y-7000005D01*
X6025808Y-7508005D02*
X6110808Y-7423005D01*
X6025808Y-7338005D01*
X5940808Y-7423005D01*
X6025808Y-7508005D01*
X6381808Y-7000005D02*
X6466808Y-6915005D01*
X6381808Y-6830005D01*
X6296808Y-6915005D01*
X6381808Y-7000005D01*
X6737808Y-7508005D02*
X6822808Y-7423005D01*
X6737808Y-7338005D01*
X6652808Y-7423005D01*
X6737808Y-7508005D01*
X7093808Y-7000005D02*
X7178808Y-6915005D01*
X7093808Y-6830005D01*
X7008808Y-6915005D01*
X7093808Y-7000005D01*
X7449808Y-7508005D02*
X7534808Y-7423005D01*
X7449808Y-7338005D01*
X7364808Y-7423005D01*
X7449808Y-7508005D01*
X8517808Y-7000005D02*
X8602808Y-6915005D01*
X8517808Y-6830005D01*
X8432808Y-6915005D01*
X8517808Y-7000005D01*
X8873808Y-7508005D02*
X8958808Y-7423005D01*
X8873808Y-7338005D01*
X8788808Y-7423005D01*
X8873808Y-7508005D01*
X9229808Y-7000005D02*
X9314808Y-6915005D01*
X9229808Y-6830005D01*
X9144808Y-6915005D01*
X9229808Y-7000005D01*
X9585808Y-7508005D02*
X9670808Y-7423005D01*
X9585808Y-7338005D01*
X9500808Y-7423005D01*
X9585808Y-7508005D01*
X9941808Y-7000005D02*
X10026808Y-6915005D01*
X9941808Y-6830005D01*
X9856808Y-6915005D01*
X9941808Y-7000005D01*
X10297808Y-7508005D02*
X10382808Y-7423005D01*
X10297808Y-7338005D01*
X10212808Y-7423005D01*
X10297808Y-7508005D01*
X10653808Y-7000005D02*
X10738808Y-6915005D01*
X10653808Y-6830005D01*
X10568808Y-6915005D01*
X10653808Y-7000005D01*
X11009808Y-7508005D02*
X11094808Y-7423005D01*
X11009808Y-7338005D01*
X10924808Y-7423005D01*
X11009808Y-7508005D01*
X11365808Y-7000005D02*
X11450808Y-6915005D01*
X11365808Y-6830005D01*
X11280808Y-6915005D01*
X11365808Y-7000005D01*
X11721808Y-7508005D02*
X11806808Y-7423005D01*
X11721808Y-7338005D01*
X11636808Y-7423005D01*
X11721808Y-7508005D01*
X12077808Y-7000005D02*
X12162808Y-6915005D01*
X12077808Y-6830005D01*
X11992808Y-6915005D01*
X12077808Y-7000005D01*
X12433808Y-7508005D02*
X12518808Y-7423005D01*
X12433808Y-7338005D01*
X12348808Y-7423005D01*
X12433808Y-7508005D01*
X12789808Y-7000005D02*
X12874808Y-6915005D01*
X12789808Y-6830005D01*
X12704808Y-6915005D01*
X12789808Y-7000005D01*
X13145808Y-7508005D02*
X13230808Y-7423005D01*
X13145808Y-7338005D01*
X13060808Y-7423005D01*
X13145808Y-7508005D01*
X13501808Y-7000005D02*
X13586808Y-6915005D01*
X13501808Y-6830005D01*
X13416808Y-6915005D01*
X13501808Y-7000005D01*
X13857808Y-7508005D02*
X13942808Y-7423005D01*
X13857808Y-7338005D01*
X13772808Y-7423005D01*
X13857808Y-7508005D01*
X14213808Y-7000005D02*
X14298808Y-6915005D01*
X14213808Y-6830005D01*
X14128808Y-6915005D01*
X14213808Y-7000005D01*
D11*
X3824584Y-14010589D02*
X3824584Y-13810589D01*
X3824584Y-13810589D02*
X3872203Y-13810589D01*
X3872203Y-13810589D02*
X3900775Y-13820112D01*
X3900775Y-13820112D02*
X3919822Y-13839160D01*
X3919822Y-13839160D02*
X3929346Y-13858208D01*
X3929346Y-13858208D02*
X3938870Y-13896303D01*
X3938870Y-13896303D02*
X3938870Y-13924874D01*
X3938870Y-13924874D02*
X3929346Y-13962970D01*
X3929346Y-13962970D02*
X3919822Y-13982017D01*
X3919822Y-13982017D02*
X3900775Y-14001065D01*
X3900775Y-14001065D02*
X3872203Y-14010589D01*
X3872203Y-14010589D02*
X3824584Y-14010589D01*
X4024584Y-14010589D02*
X4024584Y-13877255D01*
X4024584Y-13915351D02*
X4034108Y-13896303D01*
X4034108Y-13896303D02*
X4043632Y-13886779D01*
X4043632Y-13886779D02*
X4062680Y-13877255D01*
X4062680Y-13877255D02*
X4081727Y-13877255D01*
X4148394Y-14010589D02*
X4148394Y-13877255D01*
X4148394Y-13810589D02*
X4138870Y-13820112D01*
X4138870Y-13820112D02*
X4148394Y-13829636D01*
X4148394Y-13829636D02*
X4157918Y-13820112D01*
X4157918Y-13820112D02*
X4148394Y-13810589D01*
X4148394Y-13810589D02*
X4148394Y-13829636D01*
X4272203Y-14010589D02*
X4253156Y-14001065D01*
X4253156Y-14001065D02*
X4243632Y-13982017D01*
X4243632Y-13982017D02*
X4243632Y-13810589D01*
X4376965Y-14010589D02*
X4357918Y-14001065D01*
X4357918Y-14001065D02*
X4348394Y-13982017D01*
X4348394Y-13982017D02*
X4348394Y-13810589D01*
X4605537Y-14010589D02*
X4605537Y-13810589D01*
X4605537Y-13810589D02*
X4672204Y-13953446D01*
X4672204Y-13953446D02*
X4738870Y-13810589D01*
X4738870Y-13810589D02*
X4738870Y-14010589D01*
X4919823Y-14010589D02*
X4919823Y-13905827D01*
X4919823Y-13905827D02*
X4910299Y-13886779D01*
X4910299Y-13886779D02*
X4891251Y-13877255D01*
X4891251Y-13877255D02*
X4853156Y-13877255D01*
X4853156Y-13877255D02*
X4834108Y-13886779D01*
X4919823Y-14001065D02*
X4900775Y-14010589D01*
X4900775Y-14010589D02*
X4853156Y-14010589D01*
X4853156Y-14010589D02*
X4834108Y-14001065D01*
X4834108Y-14001065D02*
X4824584Y-13982017D01*
X4824584Y-13982017D02*
X4824584Y-13962970D01*
X4824584Y-13962970D02*
X4834108Y-13943922D01*
X4834108Y-13943922D02*
X4853156Y-13934398D01*
X4853156Y-13934398D02*
X4900775Y-13934398D01*
X4900775Y-13934398D02*
X4919823Y-13924874D01*
X5015061Y-13877255D02*
X5015061Y-14077255D01*
X5015061Y-13886779D02*
X5034108Y-13877255D01*
X5034108Y-13877255D02*
X5072204Y-13877255D01*
X5072204Y-13877255D02*
X5091251Y-13886779D01*
X5091251Y-13886779D02*
X5100775Y-13896303D01*
X5100775Y-13896303D02*
X5110299Y-13915351D01*
X5110299Y-13915351D02*
X5110299Y-13972493D01*
X5110299Y-13972493D02*
X5100775Y-13991541D01*
X5100775Y-13991541D02*
X5091251Y-14001065D01*
X5091251Y-14001065D02*
X5072204Y-14010589D01*
X5072204Y-14010589D02*
X5034108Y-14010589D01*
X5034108Y-14010589D02*
X5015061Y-14001065D01*
X5196013Y-13991541D02*
X5205537Y-14001065D01*
X5205537Y-14001065D02*
X5196013Y-14010589D01*
X5196013Y-14010589D02*
X5186489Y-14001065D01*
X5186489Y-14001065D02*
X5196013Y-13991541D01*
X5196013Y-13991541D02*
X5196013Y-14010589D01*
X5196013Y-13886779D02*
X5205537Y-13896303D01*
X5205537Y-13896303D02*
X5196013Y-13905827D01*
X5196013Y-13905827D02*
X5186489Y-13896303D01*
X5186489Y-13896303D02*
X5196013Y-13886779D01*
X5196013Y-13886779D02*
X5196013Y-13905827D01*
D12*
X3533808Y-14324105D02*
X3563808Y-14354105D01*
X3563808Y-14324105D02*
X3533808Y-14354105D01*
D11*
X3862680Y-14230589D02*
X3881727Y-14230589D01*
X3881727Y-14230589D02*
X3900775Y-14240112D01*
X3900775Y-14240112D02*
X3910299Y-14249636D01*
X3910299Y-14249636D02*
X3919822Y-14268684D01*
X3919822Y-14268684D02*
X3929346Y-14306779D01*
X3929346Y-14306779D02*
X3929346Y-14354398D01*
X3929346Y-14354398D02*
X3919822Y-14392493D01*
X3919822Y-14392493D02*
X3910299Y-14411541D01*
X3910299Y-14411541D02*
X3900775Y-14421065D01*
X3900775Y-14421065D02*
X3881727Y-14430589D01*
X3881727Y-14430589D02*
X3862680Y-14430589D01*
X3862680Y-14430589D02*
X3843632Y-14421065D01*
X3843632Y-14421065D02*
X3834108Y-14411541D01*
X3834108Y-14411541D02*
X3824584Y-14392493D01*
X3824584Y-14392493D02*
X3815061Y-14354398D01*
X3815061Y-14354398D02*
X3815061Y-14306779D01*
X3815061Y-14306779D02*
X3824584Y-14268684D01*
X3824584Y-14268684D02*
X3834108Y-14249636D01*
X3834108Y-14249636D02*
X3843632Y-14240112D01*
X3843632Y-14240112D02*
X3862680Y-14230589D01*
X4015061Y-14411541D02*
X4024584Y-14421065D01*
X4024584Y-14421065D02*
X4015061Y-14430589D01*
X4015061Y-14430589D02*
X4005537Y-14421065D01*
X4005537Y-14421065D02*
X4015061Y-14411541D01*
X4015061Y-14411541D02*
X4015061Y-14430589D01*
X4091251Y-14230589D02*
X4215061Y-14230589D01*
X4215061Y-14230589D02*
X4148394Y-14306779D01*
X4148394Y-14306779D02*
X4176965Y-14306779D01*
X4176965Y-14306779D02*
X4196013Y-14316303D01*
X4196013Y-14316303D02*
X4205537Y-14325827D01*
X4205537Y-14325827D02*
X4215061Y-14344874D01*
X4215061Y-14344874D02*
X4215061Y-14392493D01*
X4215061Y-14392493D02*
X4205537Y-14411541D01*
X4205537Y-14411541D02*
X4196013Y-14421065D01*
X4196013Y-14421065D02*
X4176965Y-14430589D01*
X4176965Y-14430589D02*
X4119822Y-14430589D01*
X4119822Y-14430589D02*
X4100775Y-14421065D01*
X4100775Y-14421065D02*
X4091251Y-14411541D01*
X4338870Y-14230589D02*
X4357918Y-14230589D01*
X4357918Y-14230589D02*
X4376965Y-14240112D01*
X4376965Y-14240112D02*
X4386489Y-14249636D01*
X4386489Y-14249636D02*
X4396013Y-14268684D01*
X4396013Y-14268684D02*
X4405537Y-14306779D01*
X4405537Y-14306779D02*
X4405537Y-14354398D01*
X4405537Y-14354398D02*
X4396013Y-14392493D01*
X4396013Y-14392493D02*
X4386489Y-14411541D01*
X4386489Y-14411541D02*
X4376965Y-14421065D01*
X4376965Y-14421065D02*
X4357918Y-14430589D01*
X4357918Y-14430589D02*
X4338870Y-14430589D01*
X4338870Y-14430589D02*
X4319823Y-14421065D01*
X4319823Y-14421065D02*
X4310299Y-14411541D01*
X4310299Y-14411541D02*
X4300775Y-14392493D01*
X4300775Y-14392493D02*
X4291251Y-14354398D01*
X4291251Y-14354398D02*
X4291251Y-14306779D01*
X4291251Y-14306779D02*
X4300775Y-14268684D01*
X4300775Y-14268684D02*
X4310299Y-14249636D01*
X4310299Y-14249636D02*
X4319823Y-14240112D01*
X4319823Y-14240112D02*
X4338870Y-14230589D01*
X4529346Y-14230589D02*
X4548394Y-14230589D01*
X4548394Y-14230589D02*
X4567442Y-14240112D01*
X4567442Y-14240112D02*
X4576965Y-14249636D01*
X4576965Y-14249636D02*
X4586489Y-14268684D01*
X4586489Y-14268684D02*
X4596013Y-14306779D01*
X4596013Y-14306779D02*
X4596013Y-14354398D01*
X4596013Y-14354398D02*
X4586489Y-14392493D01*
X4586489Y-14392493D02*
X4576965Y-14411541D01*
X4576965Y-14411541D02*
X4567442Y-14421065D01*
X4567442Y-14421065D02*
X4548394Y-14430589D01*
X4548394Y-14430589D02*
X4529346Y-14430589D01*
X4529346Y-14430589D02*
X4510299Y-14421065D01*
X4510299Y-14421065D02*
X4500775Y-14411541D01*
X4500775Y-14411541D02*
X4491251Y-14392493D01*
X4491251Y-14392493D02*
X4481727Y-14354398D01*
X4481727Y-14354398D02*
X4481727Y-14306779D01*
X4481727Y-14306779D02*
X4491251Y-14268684D01*
X4491251Y-14268684D02*
X4500775Y-14249636D01*
X4500775Y-14249636D02*
X4510299Y-14240112D01*
X4510299Y-14240112D02*
X4529346Y-14230589D01*
X4681727Y-14430589D02*
X4681727Y-14297255D01*
X4681727Y-14316303D02*
X4691251Y-14306779D01*
X4691251Y-14306779D02*
X4710299Y-14297255D01*
X4710299Y-14297255D02*
X4738870Y-14297255D01*
X4738870Y-14297255D02*
X4757918Y-14306779D01*
X4757918Y-14306779D02*
X4767442Y-14325827D01*
X4767442Y-14325827D02*
X4767442Y-14430589D01*
X4767442Y-14325827D02*
X4776965Y-14306779D01*
X4776965Y-14306779D02*
X4796013Y-14297255D01*
X4796013Y-14297255D02*
X4824584Y-14297255D01*
X4824584Y-14297255D02*
X4843632Y-14306779D01*
X4843632Y-14306779D02*
X4853156Y-14325827D01*
X4853156Y-14325827D02*
X4853156Y-14430589D01*
X4948394Y-14430589D02*
X4948394Y-14297255D01*
X4948394Y-14316303D02*
X4957918Y-14306779D01*
X4957918Y-14306779D02*
X4976965Y-14297255D01*
X4976965Y-14297255D02*
X5005537Y-14297255D01*
X5005537Y-14297255D02*
X5024585Y-14306779D01*
X5024585Y-14306779D02*
X5034108Y-14325827D01*
X5034108Y-14325827D02*
X5034108Y-14430589D01*
X5034108Y-14325827D02*
X5043632Y-14306779D01*
X5043632Y-14306779D02*
X5062680Y-14297255D01*
X5062680Y-14297255D02*
X5091251Y-14297255D01*
X5091251Y-14297255D02*
X5110299Y-14306779D01*
X5110299Y-14306779D02*
X5119823Y-14325827D01*
X5119823Y-14325827D02*
X5119823Y-14430589D01*
X5510299Y-14221065D02*
X5338870Y-14478208D01*
X5767442Y-14230589D02*
X5786489Y-14230589D01*
X5786489Y-14230589D02*
X5805537Y-14240112D01*
X5805537Y-14240112D02*
X5815061Y-14249636D01*
X5815061Y-14249636D02*
X5824585Y-14268684D01*
X5824585Y-14268684D02*
X5834108Y-14306779D01*
X5834108Y-14306779D02*
X5834108Y-14354398D01*
X5834108Y-14354398D02*
X5824585Y-14392493D01*
X5824585Y-14392493D02*
X5815061Y-14411541D01*
X5815061Y-14411541D02*
X5805537Y-14421065D01*
X5805537Y-14421065D02*
X5786489Y-14430589D01*
X5786489Y-14430589D02*
X5767442Y-14430589D01*
X5767442Y-14430589D02*
X5748394Y-14421065D01*
X5748394Y-14421065D02*
X5738870Y-14411541D01*
X5738870Y-14411541D02*
X5729346Y-14392493D01*
X5729346Y-14392493D02*
X5719823Y-14354398D01*
X5719823Y-14354398D02*
X5719823Y-14306779D01*
X5719823Y-14306779D02*
X5729346Y-14268684D01*
X5729346Y-14268684D02*
X5738870Y-14249636D01*
X5738870Y-14249636D02*
X5748394Y-14240112D01*
X5748394Y-14240112D02*
X5767442Y-14230589D01*
X5919823Y-14411541D02*
X5929346Y-14421065D01*
X5929346Y-14421065D02*
X5919823Y-14430589D01*
X5919823Y-14430589D02*
X5910299Y-14421065D01*
X5910299Y-14421065D02*
X5919823Y-14411541D01*
X5919823Y-14411541D02*
X5919823Y-14430589D01*
X6053156Y-14230589D02*
X6072204Y-14230589D01*
X6072204Y-14230589D02*
X6091251Y-14240112D01*
X6091251Y-14240112D02*
X6100775Y-14249636D01*
X6100775Y-14249636D02*
X6110299Y-14268684D01*
X6110299Y-14268684D02*
X6119823Y-14306779D01*
X6119823Y-14306779D02*
X6119823Y-14354398D01*
X6119823Y-14354398D02*
X6110299Y-14392493D01*
X6110299Y-14392493D02*
X6100775Y-14411541D01*
X6100775Y-14411541D02*
X6091251Y-14421065D01*
X6091251Y-14421065D02*
X6072204Y-14430589D01*
X6072204Y-14430589D02*
X6053156Y-14430589D01*
X6053156Y-14430589D02*
X6034108Y-14421065D01*
X6034108Y-14421065D02*
X6024585Y-14411541D01*
X6024585Y-14411541D02*
X6015061Y-14392493D01*
X6015061Y-14392493D02*
X6005537Y-14354398D01*
X6005537Y-14354398D02*
X6005537Y-14306779D01*
X6005537Y-14306779D02*
X6015061Y-14268684D01*
X6015061Y-14268684D02*
X6024585Y-14249636D01*
X6024585Y-14249636D02*
X6034108Y-14240112D01*
X6034108Y-14240112D02*
X6053156Y-14230589D01*
X6310299Y-14430589D02*
X6196013Y-14430589D01*
X6253156Y-14430589D02*
X6253156Y-14230589D01*
X6253156Y-14230589D02*
X6234108Y-14259160D01*
X6234108Y-14259160D02*
X6215061Y-14278208D01*
X6215061Y-14278208D02*
X6196013Y-14287731D01*
X6500775Y-14430589D02*
X6386489Y-14430589D01*
X6443632Y-14430589D02*
X6443632Y-14230589D01*
X6443632Y-14230589D02*
X6424585Y-14259160D01*
X6424585Y-14259160D02*
X6405537Y-14278208D01*
X6405537Y-14278208D02*
X6386489Y-14287731D01*
X6615061Y-14316303D02*
X6596013Y-14306779D01*
X6596013Y-14306779D02*
X6586489Y-14297255D01*
X6586489Y-14297255D02*
X6576966Y-14278208D01*
X6576966Y-14278208D02*
X6576966Y-14268684D01*
X6576966Y-14268684D02*
X6586489Y-14249636D01*
X6586489Y-14249636D02*
X6596013Y-14240112D01*
X6596013Y-14240112D02*
X6615061Y-14230589D01*
X6615061Y-14230589D02*
X6653156Y-14230589D01*
X6653156Y-14230589D02*
X6672204Y-14240112D01*
X6672204Y-14240112D02*
X6681727Y-14249636D01*
X6681727Y-14249636D02*
X6691251Y-14268684D01*
X6691251Y-14268684D02*
X6691251Y-14278208D01*
X6691251Y-14278208D02*
X6681727Y-14297255D01*
X6681727Y-14297255D02*
X6672204Y-14306779D01*
X6672204Y-14306779D02*
X6653156Y-14316303D01*
X6653156Y-14316303D02*
X6615061Y-14316303D01*
X6615061Y-14316303D02*
X6596013Y-14325827D01*
X6596013Y-14325827D02*
X6586489Y-14335351D01*
X6586489Y-14335351D02*
X6576966Y-14354398D01*
X6576966Y-14354398D02*
X6576966Y-14392493D01*
X6576966Y-14392493D02*
X6586489Y-14411541D01*
X6586489Y-14411541D02*
X6596013Y-14421065D01*
X6596013Y-14421065D02*
X6615061Y-14430589D01*
X6615061Y-14430589D02*
X6653156Y-14430589D01*
X6653156Y-14430589D02*
X6672204Y-14421065D01*
X6672204Y-14421065D02*
X6681727Y-14411541D01*
X6681727Y-14411541D02*
X6691251Y-14392493D01*
X6691251Y-14392493D02*
X6691251Y-14354398D01*
X6691251Y-14354398D02*
X6681727Y-14335351D01*
X6681727Y-14335351D02*
X6672204Y-14325827D01*
X6672204Y-14325827D02*
X6653156Y-14316303D01*
X6767442Y-14230589D02*
X6767442Y-14268684D01*
X6843632Y-14230589D02*
X6843632Y-14268684D01*
X7138870Y-14506779D02*
X7129347Y-14497255D01*
X7129347Y-14497255D02*
X7110299Y-14468684D01*
X7110299Y-14468684D02*
X7100775Y-14449636D01*
X7100775Y-14449636D02*
X7091251Y-14421065D01*
X7091251Y-14421065D02*
X7081728Y-14373446D01*
X7081728Y-14373446D02*
X7081728Y-14335351D01*
X7081728Y-14335351D02*
X7091251Y-14287731D01*
X7091251Y-14287731D02*
X7100775Y-14259160D01*
X7100775Y-14259160D02*
X7110299Y-14240112D01*
X7110299Y-14240112D02*
X7129347Y-14211541D01*
X7129347Y-14211541D02*
X7138870Y-14202017D01*
X7196013Y-14230589D02*
X7319823Y-14230589D01*
X7319823Y-14230589D02*
X7253156Y-14306779D01*
X7253156Y-14306779D02*
X7281728Y-14306779D01*
X7281728Y-14306779D02*
X7300775Y-14316303D01*
X7300775Y-14316303D02*
X7310299Y-14325827D01*
X7310299Y-14325827D02*
X7319823Y-14344874D01*
X7319823Y-14344874D02*
X7319823Y-14392493D01*
X7319823Y-14392493D02*
X7310299Y-14411541D01*
X7310299Y-14411541D02*
X7300775Y-14421065D01*
X7300775Y-14421065D02*
X7281728Y-14430589D01*
X7281728Y-14430589D02*
X7224585Y-14430589D01*
X7224585Y-14430589D02*
X7205537Y-14421065D01*
X7205537Y-14421065D02*
X7196013Y-14411541D01*
X7443632Y-14230589D02*
X7462680Y-14230589D01*
X7462680Y-14230589D02*
X7481728Y-14240112D01*
X7481728Y-14240112D02*
X7491251Y-14249636D01*
X7491251Y-14249636D02*
X7500775Y-14268684D01*
X7500775Y-14268684D02*
X7510299Y-14306779D01*
X7510299Y-14306779D02*
X7510299Y-14354398D01*
X7510299Y-14354398D02*
X7500775Y-14392493D01*
X7500775Y-14392493D02*
X7491251Y-14411541D01*
X7491251Y-14411541D02*
X7481728Y-14421065D01*
X7481728Y-14421065D02*
X7462680Y-14430589D01*
X7462680Y-14430589D02*
X7443632Y-14430589D01*
X7443632Y-14430589D02*
X7424585Y-14421065D01*
X7424585Y-14421065D02*
X7415061Y-14411541D01*
X7415061Y-14411541D02*
X7405537Y-14392493D01*
X7405537Y-14392493D02*
X7396013Y-14354398D01*
X7396013Y-14354398D02*
X7396013Y-14306779D01*
X7396013Y-14306779D02*
X7405537Y-14268684D01*
X7405537Y-14268684D02*
X7415061Y-14249636D01*
X7415061Y-14249636D02*
X7424585Y-14240112D01*
X7424585Y-14240112D02*
X7443632Y-14230589D01*
X7748394Y-14430589D02*
X7748394Y-14230589D01*
X7834109Y-14430589D02*
X7834109Y-14325827D01*
X7834109Y-14325827D02*
X7824585Y-14306779D01*
X7824585Y-14306779D02*
X7805537Y-14297255D01*
X7805537Y-14297255D02*
X7776966Y-14297255D01*
X7776966Y-14297255D02*
X7757918Y-14306779D01*
X7757918Y-14306779D02*
X7748394Y-14316303D01*
X7957918Y-14430589D02*
X7938870Y-14421065D01*
X7938870Y-14421065D02*
X7929347Y-14411541D01*
X7929347Y-14411541D02*
X7919823Y-14392493D01*
X7919823Y-14392493D02*
X7919823Y-14335351D01*
X7919823Y-14335351D02*
X7929347Y-14316303D01*
X7929347Y-14316303D02*
X7938870Y-14306779D01*
X7938870Y-14306779D02*
X7957918Y-14297255D01*
X7957918Y-14297255D02*
X7986490Y-14297255D01*
X7986490Y-14297255D02*
X8005537Y-14306779D01*
X8005537Y-14306779D02*
X8015061Y-14316303D01*
X8015061Y-14316303D02*
X8024585Y-14335351D01*
X8024585Y-14335351D02*
X8024585Y-14392493D01*
X8024585Y-14392493D02*
X8015061Y-14411541D01*
X8015061Y-14411541D02*
X8005537Y-14421065D01*
X8005537Y-14421065D02*
X7986490Y-14430589D01*
X7986490Y-14430589D02*
X7957918Y-14430589D01*
X8138870Y-14430589D02*
X8119823Y-14421065D01*
X8119823Y-14421065D02*
X8110299Y-14402017D01*
X8110299Y-14402017D02*
X8110299Y-14230589D01*
X8291251Y-14421065D02*
X8272204Y-14430589D01*
X8272204Y-14430589D02*
X8234109Y-14430589D01*
X8234109Y-14430589D02*
X8215061Y-14421065D01*
X8215061Y-14421065D02*
X8205537Y-14402017D01*
X8205537Y-14402017D02*
X8205537Y-14325827D01*
X8205537Y-14325827D02*
X8215061Y-14306779D01*
X8215061Y-14306779D02*
X8234109Y-14297255D01*
X8234109Y-14297255D02*
X8272204Y-14297255D01*
X8272204Y-14297255D02*
X8291251Y-14306779D01*
X8291251Y-14306779D02*
X8300775Y-14325827D01*
X8300775Y-14325827D02*
X8300775Y-14344874D01*
X8300775Y-14344874D02*
X8205537Y-14363922D01*
X8376966Y-14421065D02*
X8396013Y-14430589D01*
X8396013Y-14430589D02*
X8434109Y-14430589D01*
X8434109Y-14430589D02*
X8453156Y-14421065D01*
X8453156Y-14421065D02*
X8462680Y-14402017D01*
X8462680Y-14402017D02*
X8462680Y-14392493D01*
X8462680Y-14392493D02*
X8453156Y-14373446D01*
X8453156Y-14373446D02*
X8434109Y-14363922D01*
X8434109Y-14363922D02*
X8405537Y-14363922D01*
X8405537Y-14363922D02*
X8386490Y-14354398D01*
X8386490Y-14354398D02*
X8376966Y-14335351D01*
X8376966Y-14335351D02*
X8376966Y-14325827D01*
X8376966Y-14325827D02*
X8386490Y-14306779D01*
X8386490Y-14306779D02*
X8405537Y-14297255D01*
X8405537Y-14297255D02*
X8434109Y-14297255D01*
X8434109Y-14297255D02*
X8453156Y-14306779D01*
X8529347Y-14506779D02*
X8538871Y-14497255D01*
X8538871Y-14497255D02*
X8557918Y-14468684D01*
X8557918Y-14468684D02*
X8567442Y-14449636D01*
X8567442Y-14449636D02*
X8576966Y-14421065D01*
X8576966Y-14421065D02*
X8586490Y-14373446D01*
X8586490Y-14373446D02*
X8586490Y-14335351D01*
X8586490Y-14335351D02*
X8576966Y-14287731D01*
X8576966Y-14287731D02*
X8567442Y-14259160D01*
X8567442Y-14259160D02*
X8557918Y-14240112D01*
X8557918Y-14240112D02*
X8538871Y-14211541D01*
X8538871Y-14211541D02*
X8529347Y-14202017D01*
D12*
X3563808Y-14603105D02*
G75*
G02*
X3483808Y-14603105I-40000J0D01*
G01*
X3483808Y-14603105D02*
G75*
G02*
X3563808Y-14603105I40000J0D01*
G01*
D11*
X3862680Y-14494589D02*
X3881727Y-14494589D01*
X3881727Y-14494589D02*
X3900775Y-14504112D01*
X3900775Y-14504112D02*
X3910299Y-14513636D01*
X3910299Y-14513636D02*
X3919822Y-14532684D01*
X3919822Y-14532684D02*
X3929346Y-14570779D01*
X3929346Y-14570779D02*
X3929346Y-14618398D01*
X3929346Y-14618398D02*
X3919822Y-14656493D01*
X3919822Y-14656493D02*
X3910299Y-14675541D01*
X3910299Y-14675541D02*
X3900775Y-14685065D01*
X3900775Y-14685065D02*
X3881727Y-14694589D01*
X3881727Y-14694589D02*
X3862680Y-14694589D01*
X3862680Y-14694589D02*
X3843632Y-14685065D01*
X3843632Y-14685065D02*
X3834108Y-14675541D01*
X3834108Y-14675541D02*
X3824584Y-14656493D01*
X3824584Y-14656493D02*
X3815061Y-14618398D01*
X3815061Y-14618398D02*
X3815061Y-14570779D01*
X3815061Y-14570779D02*
X3824584Y-14532684D01*
X3824584Y-14532684D02*
X3834108Y-14513636D01*
X3834108Y-14513636D02*
X3843632Y-14504112D01*
X3843632Y-14504112D02*
X3862680Y-14494589D01*
X4015061Y-14675541D02*
X4024584Y-14685065D01*
X4024584Y-14685065D02*
X4015061Y-14694589D01*
X4015061Y-14694589D02*
X4005537Y-14685065D01*
X4005537Y-14685065D02*
X4015061Y-14675541D01*
X4015061Y-14675541D02*
X4015061Y-14694589D01*
X4138870Y-14580303D02*
X4119822Y-14570779D01*
X4119822Y-14570779D02*
X4110299Y-14561255D01*
X4110299Y-14561255D02*
X4100775Y-14542208D01*
X4100775Y-14542208D02*
X4100775Y-14532684D01*
X4100775Y-14532684D02*
X4110299Y-14513636D01*
X4110299Y-14513636D02*
X4119822Y-14504112D01*
X4119822Y-14504112D02*
X4138870Y-14494589D01*
X4138870Y-14494589D02*
X4176965Y-14494589D01*
X4176965Y-14494589D02*
X4196013Y-14504112D01*
X4196013Y-14504112D02*
X4205537Y-14513636D01*
X4205537Y-14513636D02*
X4215061Y-14532684D01*
X4215061Y-14532684D02*
X4215061Y-14542208D01*
X4215061Y-14542208D02*
X4205537Y-14561255D01*
X4205537Y-14561255D02*
X4196013Y-14570779D01*
X4196013Y-14570779D02*
X4176965Y-14580303D01*
X4176965Y-14580303D02*
X4138870Y-14580303D01*
X4138870Y-14580303D02*
X4119822Y-14589827D01*
X4119822Y-14589827D02*
X4110299Y-14599351D01*
X4110299Y-14599351D02*
X4100775Y-14618398D01*
X4100775Y-14618398D02*
X4100775Y-14656493D01*
X4100775Y-14656493D02*
X4110299Y-14675541D01*
X4110299Y-14675541D02*
X4119822Y-14685065D01*
X4119822Y-14685065D02*
X4138870Y-14694589D01*
X4138870Y-14694589D02*
X4176965Y-14694589D01*
X4176965Y-14694589D02*
X4196013Y-14685065D01*
X4196013Y-14685065D02*
X4205537Y-14675541D01*
X4205537Y-14675541D02*
X4215061Y-14656493D01*
X4215061Y-14656493D02*
X4215061Y-14618398D01*
X4215061Y-14618398D02*
X4205537Y-14599351D01*
X4205537Y-14599351D02*
X4196013Y-14589827D01*
X4196013Y-14589827D02*
X4176965Y-14580303D01*
X4338870Y-14494589D02*
X4357918Y-14494589D01*
X4357918Y-14494589D02*
X4376965Y-14504112D01*
X4376965Y-14504112D02*
X4386489Y-14513636D01*
X4386489Y-14513636D02*
X4396013Y-14532684D01*
X4396013Y-14532684D02*
X4405537Y-14570779D01*
X4405537Y-14570779D02*
X4405537Y-14618398D01*
X4405537Y-14618398D02*
X4396013Y-14656493D01*
X4396013Y-14656493D02*
X4386489Y-14675541D01*
X4386489Y-14675541D02*
X4376965Y-14685065D01*
X4376965Y-14685065D02*
X4357918Y-14694589D01*
X4357918Y-14694589D02*
X4338870Y-14694589D01*
X4338870Y-14694589D02*
X4319823Y-14685065D01*
X4319823Y-14685065D02*
X4310299Y-14675541D01*
X4310299Y-14675541D02*
X4300775Y-14656493D01*
X4300775Y-14656493D02*
X4291251Y-14618398D01*
X4291251Y-14618398D02*
X4291251Y-14570779D01*
X4291251Y-14570779D02*
X4300775Y-14532684D01*
X4300775Y-14532684D02*
X4310299Y-14513636D01*
X4310299Y-14513636D02*
X4319823Y-14504112D01*
X4319823Y-14504112D02*
X4338870Y-14494589D01*
X4529346Y-14494589D02*
X4548394Y-14494589D01*
X4548394Y-14494589D02*
X4567442Y-14504112D01*
X4567442Y-14504112D02*
X4576965Y-14513636D01*
X4576965Y-14513636D02*
X4586489Y-14532684D01*
X4586489Y-14532684D02*
X4596013Y-14570779D01*
X4596013Y-14570779D02*
X4596013Y-14618398D01*
X4596013Y-14618398D02*
X4586489Y-14656493D01*
X4586489Y-14656493D02*
X4576965Y-14675541D01*
X4576965Y-14675541D02*
X4567442Y-14685065D01*
X4567442Y-14685065D02*
X4548394Y-14694589D01*
X4548394Y-14694589D02*
X4529346Y-14694589D01*
X4529346Y-14694589D02*
X4510299Y-14685065D01*
X4510299Y-14685065D02*
X4500775Y-14675541D01*
X4500775Y-14675541D02*
X4491251Y-14656493D01*
X4491251Y-14656493D02*
X4481727Y-14618398D01*
X4481727Y-14618398D02*
X4481727Y-14570779D01*
X4481727Y-14570779D02*
X4491251Y-14532684D01*
X4491251Y-14532684D02*
X4500775Y-14513636D01*
X4500775Y-14513636D02*
X4510299Y-14504112D01*
X4510299Y-14504112D02*
X4529346Y-14494589D01*
X4681727Y-14694589D02*
X4681727Y-14561255D01*
X4681727Y-14580303D02*
X4691251Y-14570779D01*
X4691251Y-14570779D02*
X4710299Y-14561255D01*
X4710299Y-14561255D02*
X4738870Y-14561255D01*
X4738870Y-14561255D02*
X4757918Y-14570779D01*
X4757918Y-14570779D02*
X4767442Y-14589827D01*
X4767442Y-14589827D02*
X4767442Y-14694589D01*
X4767442Y-14589827D02*
X4776965Y-14570779D01*
X4776965Y-14570779D02*
X4796013Y-14561255D01*
X4796013Y-14561255D02*
X4824584Y-14561255D01*
X4824584Y-14561255D02*
X4843632Y-14570779D01*
X4843632Y-14570779D02*
X4853156Y-14589827D01*
X4853156Y-14589827D02*
X4853156Y-14694589D01*
X4948394Y-14694589D02*
X4948394Y-14561255D01*
X4948394Y-14580303D02*
X4957918Y-14570779D01*
X4957918Y-14570779D02*
X4976965Y-14561255D01*
X4976965Y-14561255D02*
X5005537Y-14561255D01*
X5005537Y-14561255D02*
X5024585Y-14570779D01*
X5024585Y-14570779D02*
X5034108Y-14589827D01*
X5034108Y-14589827D02*
X5034108Y-14694589D01*
X5034108Y-14589827D02*
X5043632Y-14570779D01*
X5043632Y-14570779D02*
X5062680Y-14561255D01*
X5062680Y-14561255D02*
X5091251Y-14561255D01*
X5091251Y-14561255D02*
X5110299Y-14570779D01*
X5110299Y-14570779D02*
X5119823Y-14589827D01*
X5119823Y-14589827D02*
X5119823Y-14694589D01*
X5510299Y-14485065D02*
X5338870Y-14742208D01*
X5767442Y-14494589D02*
X5786489Y-14494589D01*
X5786489Y-14494589D02*
X5805537Y-14504112D01*
X5805537Y-14504112D02*
X5815061Y-14513636D01*
X5815061Y-14513636D02*
X5824585Y-14532684D01*
X5824585Y-14532684D02*
X5834108Y-14570779D01*
X5834108Y-14570779D02*
X5834108Y-14618398D01*
X5834108Y-14618398D02*
X5824585Y-14656493D01*
X5824585Y-14656493D02*
X5815061Y-14675541D01*
X5815061Y-14675541D02*
X5805537Y-14685065D01*
X5805537Y-14685065D02*
X5786489Y-14694589D01*
X5786489Y-14694589D02*
X5767442Y-14694589D01*
X5767442Y-14694589D02*
X5748394Y-14685065D01*
X5748394Y-14685065D02*
X5738870Y-14675541D01*
X5738870Y-14675541D02*
X5729346Y-14656493D01*
X5729346Y-14656493D02*
X5719823Y-14618398D01*
X5719823Y-14618398D02*
X5719823Y-14570779D01*
X5719823Y-14570779D02*
X5729346Y-14532684D01*
X5729346Y-14532684D02*
X5738870Y-14513636D01*
X5738870Y-14513636D02*
X5748394Y-14504112D01*
X5748394Y-14504112D02*
X5767442Y-14494589D01*
X5919823Y-14675541D02*
X5929346Y-14685065D01*
X5929346Y-14685065D02*
X5919823Y-14694589D01*
X5919823Y-14694589D02*
X5910299Y-14685065D01*
X5910299Y-14685065D02*
X5919823Y-14675541D01*
X5919823Y-14675541D02*
X5919823Y-14694589D01*
X6053156Y-14494589D02*
X6072204Y-14494589D01*
X6072204Y-14494589D02*
X6091251Y-14504112D01*
X6091251Y-14504112D02*
X6100775Y-14513636D01*
X6100775Y-14513636D02*
X6110299Y-14532684D01*
X6110299Y-14532684D02*
X6119823Y-14570779D01*
X6119823Y-14570779D02*
X6119823Y-14618398D01*
X6119823Y-14618398D02*
X6110299Y-14656493D01*
X6110299Y-14656493D02*
X6100775Y-14675541D01*
X6100775Y-14675541D02*
X6091251Y-14685065D01*
X6091251Y-14685065D02*
X6072204Y-14694589D01*
X6072204Y-14694589D02*
X6053156Y-14694589D01*
X6053156Y-14694589D02*
X6034108Y-14685065D01*
X6034108Y-14685065D02*
X6024585Y-14675541D01*
X6024585Y-14675541D02*
X6015061Y-14656493D01*
X6015061Y-14656493D02*
X6005537Y-14618398D01*
X6005537Y-14618398D02*
X6005537Y-14570779D01*
X6005537Y-14570779D02*
X6015061Y-14532684D01*
X6015061Y-14532684D02*
X6024585Y-14513636D01*
X6024585Y-14513636D02*
X6034108Y-14504112D01*
X6034108Y-14504112D02*
X6053156Y-14494589D01*
X6186489Y-14494589D02*
X6310299Y-14494589D01*
X6310299Y-14494589D02*
X6243632Y-14570779D01*
X6243632Y-14570779D02*
X6272204Y-14570779D01*
X6272204Y-14570779D02*
X6291251Y-14580303D01*
X6291251Y-14580303D02*
X6300775Y-14589827D01*
X6300775Y-14589827D02*
X6310299Y-14608874D01*
X6310299Y-14608874D02*
X6310299Y-14656493D01*
X6310299Y-14656493D02*
X6300775Y-14675541D01*
X6300775Y-14675541D02*
X6291251Y-14685065D01*
X6291251Y-14685065D02*
X6272204Y-14694589D01*
X6272204Y-14694589D02*
X6215061Y-14694589D01*
X6215061Y-14694589D02*
X6196013Y-14685065D01*
X6196013Y-14685065D02*
X6186489Y-14675541D01*
X6500775Y-14694589D02*
X6386489Y-14694589D01*
X6443632Y-14694589D02*
X6443632Y-14494589D01*
X6443632Y-14494589D02*
X6424585Y-14523160D01*
X6424585Y-14523160D02*
X6405537Y-14542208D01*
X6405537Y-14542208D02*
X6386489Y-14551731D01*
X6681727Y-14494589D02*
X6586489Y-14494589D01*
X6586489Y-14494589D02*
X6576966Y-14589827D01*
X6576966Y-14589827D02*
X6586489Y-14580303D01*
X6586489Y-14580303D02*
X6605537Y-14570779D01*
X6605537Y-14570779D02*
X6653156Y-14570779D01*
X6653156Y-14570779D02*
X6672204Y-14580303D01*
X6672204Y-14580303D02*
X6681727Y-14589827D01*
X6681727Y-14589827D02*
X6691251Y-14608874D01*
X6691251Y-14608874D02*
X6691251Y-14656493D01*
X6691251Y-14656493D02*
X6681727Y-14675541D01*
X6681727Y-14675541D02*
X6672204Y-14685065D01*
X6672204Y-14685065D02*
X6653156Y-14694589D01*
X6653156Y-14694589D02*
X6605537Y-14694589D01*
X6605537Y-14694589D02*
X6586489Y-14685065D01*
X6586489Y-14685065D02*
X6576966Y-14675541D01*
X6767442Y-14494589D02*
X6767442Y-14532684D01*
X6843632Y-14494589D02*
X6843632Y-14532684D01*
X7138870Y-14770779D02*
X7129347Y-14761255D01*
X7129347Y-14761255D02*
X7110299Y-14732684D01*
X7110299Y-14732684D02*
X7100775Y-14713636D01*
X7100775Y-14713636D02*
X7091251Y-14685065D01*
X7091251Y-14685065D02*
X7081728Y-14637446D01*
X7081728Y-14637446D02*
X7081728Y-14599351D01*
X7081728Y-14599351D02*
X7091251Y-14551731D01*
X7091251Y-14551731D02*
X7100775Y-14523160D01*
X7100775Y-14523160D02*
X7110299Y-14504112D01*
X7110299Y-14504112D02*
X7129347Y-14475541D01*
X7129347Y-14475541D02*
X7138870Y-14466017D01*
X7196013Y-14494589D02*
X7319823Y-14494589D01*
X7319823Y-14494589D02*
X7253156Y-14570779D01*
X7253156Y-14570779D02*
X7281728Y-14570779D01*
X7281728Y-14570779D02*
X7300775Y-14580303D01*
X7300775Y-14580303D02*
X7310299Y-14589827D01*
X7310299Y-14589827D02*
X7319823Y-14608874D01*
X7319823Y-14608874D02*
X7319823Y-14656493D01*
X7319823Y-14656493D02*
X7310299Y-14675541D01*
X7310299Y-14675541D02*
X7300775Y-14685065D01*
X7300775Y-14685065D02*
X7281728Y-14694589D01*
X7281728Y-14694589D02*
X7224585Y-14694589D01*
X7224585Y-14694589D02*
X7205537Y-14685065D01*
X7205537Y-14685065D02*
X7196013Y-14675541D01*
X7396013Y-14513636D02*
X7405537Y-14504112D01*
X7405537Y-14504112D02*
X7424585Y-14494589D01*
X7424585Y-14494589D02*
X7472204Y-14494589D01*
X7472204Y-14494589D02*
X7491251Y-14504112D01*
X7491251Y-14504112D02*
X7500775Y-14513636D01*
X7500775Y-14513636D02*
X7510299Y-14532684D01*
X7510299Y-14532684D02*
X7510299Y-14551731D01*
X7510299Y-14551731D02*
X7500775Y-14580303D01*
X7500775Y-14580303D02*
X7386489Y-14694589D01*
X7386489Y-14694589D02*
X7510299Y-14694589D01*
X7748394Y-14694589D02*
X7748394Y-14494589D01*
X7834109Y-14694589D02*
X7834109Y-14589827D01*
X7834109Y-14589827D02*
X7824585Y-14570779D01*
X7824585Y-14570779D02*
X7805537Y-14561255D01*
X7805537Y-14561255D02*
X7776966Y-14561255D01*
X7776966Y-14561255D02*
X7757918Y-14570779D01*
X7757918Y-14570779D02*
X7748394Y-14580303D01*
X7957918Y-14694589D02*
X7938870Y-14685065D01*
X7938870Y-14685065D02*
X7929347Y-14675541D01*
X7929347Y-14675541D02*
X7919823Y-14656493D01*
X7919823Y-14656493D02*
X7919823Y-14599351D01*
X7919823Y-14599351D02*
X7929347Y-14580303D01*
X7929347Y-14580303D02*
X7938870Y-14570779D01*
X7938870Y-14570779D02*
X7957918Y-14561255D01*
X7957918Y-14561255D02*
X7986490Y-14561255D01*
X7986490Y-14561255D02*
X8005537Y-14570779D01*
X8005537Y-14570779D02*
X8015061Y-14580303D01*
X8015061Y-14580303D02*
X8024585Y-14599351D01*
X8024585Y-14599351D02*
X8024585Y-14656493D01*
X8024585Y-14656493D02*
X8015061Y-14675541D01*
X8015061Y-14675541D02*
X8005537Y-14685065D01*
X8005537Y-14685065D02*
X7986490Y-14694589D01*
X7986490Y-14694589D02*
X7957918Y-14694589D01*
X8138870Y-14694589D02*
X8119823Y-14685065D01*
X8119823Y-14685065D02*
X8110299Y-14666017D01*
X8110299Y-14666017D02*
X8110299Y-14494589D01*
X8291251Y-14685065D02*
X8272204Y-14694589D01*
X8272204Y-14694589D02*
X8234109Y-14694589D01*
X8234109Y-14694589D02*
X8215061Y-14685065D01*
X8215061Y-14685065D02*
X8205537Y-14666017D01*
X8205537Y-14666017D02*
X8205537Y-14589827D01*
X8205537Y-14589827D02*
X8215061Y-14570779D01*
X8215061Y-14570779D02*
X8234109Y-14561255D01*
X8234109Y-14561255D02*
X8272204Y-14561255D01*
X8272204Y-14561255D02*
X8291251Y-14570779D01*
X8291251Y-14570779D02*
X8300775Y-14589827D01*
X8300775Y-14589827D02*
X8300775Y-14608874D01*
X8300775Y-14608874D02*
X8205537Y-14627922D01*
X8376966Y-14685065D02*
X8396013Y-14694589D01*
X8396013Y-14694589D02*
X8434109Y-14694589D01*
X8434109Y-14694589D02*
X8453156Y-14685065D01*
X8453156Y-14685065D02*
X8462680Y-14666017D01*
X8462680Y-14666017D02*
X8462680Y-14656493D01*
X8462680Y-14656493D02*
X8453156Y-14637446D01*
X8453156Y-14637446D02*
X8434109Y-14627922D01*
X8434109Y-14627922D02*
X8405537Y-14627922D01*
X8405537Y-14627922D02*
X8386490Y-14618398D01*
X8386490Y-14618398D02*
X8376966Y-14599351D01*
X8376966Y-14599351D02*
X8376966Y-14589827D01*
X8376966Y-14589827D02*
X8386490Y-14570779D01*
X8386490Y-14570779D02*
X8405537Y-14561255D01*
X8405537Y-14561255D02*
X8434109Y-14561255D01*
X8434109Y-14561255D02*
X8453156Y-14570779D01*
X8529347Y-14770779D02*
X8538871Y-14761255D01*
X8538871Y-14761255D02*
X8557918Y-14732684D01*
X8557918Y-14732684D02*
X8567442Y-14713636D01*
X8567442Y-14713636D02*
X8576966Y-14685065D01*
X8576966Y-14685065D02*
X8586490Y-14637446D01*
X8586490Y-14637446D02*
X8586490Y-14599351D01*
X8586490Y-14599351D02*
X8576966Y-14551731D01*
X8576966Y-14551731D02*
X8567442Y-14523160D01*
X8567442Y-14523160D02*
X8557918Y-14504112D01*
X8557918Y-14504112D02*
X8538871Y-14475541D01*
X8538871Y-14475541D02*
X8529347Y-14466017D01*
D12*
X3518808Y-14822105D02*
X3518808Y-14912105D01*
X3473808Y-14867105D02*
X3563808Y-14867105D01*
D11*
X3862680Y-14758589D02*
X3881727Y-14758589D01*
X3881727Y-14758589D02*
X3900775Y-14768112D01*
X3900775Y-14768112D02*
X3910299Y-14777636D01*
X3910299Y-14777636D02*
X3919822Y-14796684D01*
X3919822Y-14796684D02*
X3929346Y-14834779D01*
X3929346Y-14834779D02*
X3929346Y-14882398D01*
X3929346Y-14882398D02*
X3919822Y-14920493D01*
X3919822Y-14920493D02*
X3910299Y-14939541D01*
X3910299Y-14939541D02*
X3900775Y-14949065D01*
X3900775Y-14949065D02*
X3881727Y-14958589D01*
X3881727Y-14958589D02*
X3862680Y-14958589D01*
X3862680Y-14958589D02*
X3843632Y-14949065D01*
X3843632Y-14949065D02*
X3834108Y-14939541D01*
X3834108Y-14939541D02*
X3824584Y-14920493D01*
X3824584Y-14920493D02*
X3815061Y-14882398D01*
X3815061Y-14882398D02*
X3815061Y-14834779D01*
X3815061Y-14834779D02*
X3824584Y-14796684D01*
X3824584Y-14796684D02*
X3834108Y-14777636D01*
X3834108Y-14777636D02*
X3843632Y-14768112D01*
X3843632Y-14768112D02*
X3862680Y-14758589D01*
X4015061Y-14939541D02*
X4024584Y-14949065D01*
X4024584Y-14949065D02*
X4015061Y-14958589D01*
X4015061Y-14958589D02*
X4005537Y-14949065D01*
X4005537Y-14949065D02*
X4015061Y-14939541D01*
X4015061Y-14939541D02*
X4015061Y-14958589D01*
X4119822Y-14958589D02*
X4157918Y-14958589D01*
X4157918Y-14958589D02*
X4176965Y-14949065D01*
X4176965Y-14949065D02*
X4186489Y-14939541D01*
X4186489Y-14939541D02*
X4205537Y-14910970D01*
X4205537Y-14910970D02*
X4215061Y-14872874D01*
X4215061Y-14872874D02*
X4215061Y-14796684D01*
X4215061Y-14796684D02*
X4205537Y-14777636D01*
X4205537Y-14777636D02*
X4196013Y-14768112D01*
X4196013Y-14768112D02*
X4176965Y-14758589D01*
X4176965Y-14758589D02*
X4138870Y-14758589D01*
X4138870Y-14758589D02*
X4119822Y-14768112D01*
X4119822Y-14768112D02*
X4110299Y-14777636D01*
X4110299Y-14777636D02*
X4100775Y-14796684D01*
X4100775Y-14796684D02*
X4100775Y-14844303D01*
X4100775Y-14844303D02*
X4110299Y-14863351D01*
X4110299Y-14863351D02*
X4119822Y-14872874D01*
X4119822Y-14872874D02*
X4138870Y-14882398D01*
X4138870Y-14882398D02*
X4176965Y-14882398D01*
X4176965Y-14882398D02*
X4196013Y-14872874D01*
X4196013Y-14872874D02*
X4205537Y-14863351D01*
X4205537Y-14863351D02*
X4215061Y-14844303D01*
X4338870Y-14758589D02*
X4357918Y-14758589D01*
X4357918Y-14758589D02*
X4376965Y-14768112D01*
X4376965Y-14768112D02*
X4386489Y-14777636D01*
X4386489Y-14777636D02*
X4396013Y-14796684D01*
X4396013Y-14796684D02*
X4405537Y-14834779D01*
X4405537Y-14834779D02*
X4405537Y-14882398D01*
X4405537Y-14882398D02*
X4396013Y-14920493D01*
X4396013Y-14920493D02*
X4386489Y-14939541D01*
X4386489Y-14939541D02*
X4376965Y-14949065D01*
X4376965Y-14949065D02*
X4357918Y-14958589D01*
X4357918Y-14958589D02*
X4338870Y-14958589D01*
X4338870Y-14958589D02*
X4319823Y-14949065D01*
X4319823Y-14949065D02*
X4310299Y-14939541D01*
X4310299Y-14939541D02*
X4300775Y-14920493D01*
X4300775Y-14920493D02*
X4291251Y-14882398D01*
X4291251Y-14882398D02*
X4291251Y-14834779D01*
X4291251Y-14834779D02*
X4300775Y-14796684D01*
X4300775Y-14796684D02*
X4310299Y-14777636D01*
X4310299Y-14777636D02*
X4319823Y-14768112D01*
X4319823Y-14768112D02*
X4338870Y-14758589D01*
X4529346Y-14758589D02*
X4548394Y-14758589D01*
X4548394Y-14758589D02*
X4567442Y-14768112D01*
X4567442Y-14768112D02*
X4576965Y-14777636D01*
X4576965Y-14777636D02*
X4586489Y-14796684D01*
X4586489Y-14796684D02*
X4596013Y-14834779D01*
X4596013Y-14834779D02*
X4596013Y-14882398D01*
X4596013Y-14882398D02*
X4586489Y-14920493D01*
X4586489Y-14920493D02*
X4576965Y-14939541D01*
X4576965Y-14939541D02*
X4567442Y-14949065D01*
X4567442Y-14949065D02*
X4548394Y-14958589D01*
X4548394Y-14958589D02*
X4529346Y-14958589D01*
X4529346Y-14958589D02*
X4510299Y-14949065D01*
X4510299Y-14949065D02*
X4500775Y-14939541D01*
X4500775Y-14939541D02*
X4491251Y-14920493D01*
X4491251Y-14920493D02*
X4481727Y-14882398D01*
X4481727Y-14882398D02*
X4481727Y-14834779D01*
X4481727Y-14834779D02*
X4491251Y-14796684D01*
X4491251Y-14796684D02*
X4500775Y-14777636D01*
X4500775Y-14777636D02*
X4510299Y-14768112D01*
X4510299Y-14768112D02*
X4529346Y-14758589D01*
X4681727Y-14958589D02*
X4681727Y-14825255D01*
X4681727Y-14844303D02*
X4691251Y-14834779D01*
X4691251Y-14834779D02*
X4710299Y-14825255D01*
X4710299Y-14825255D02*
X4738870Y-14825255D01*
X4738870Y-14825255D02*
X4757918Y-14834779D01*
X4757918Y-14834779D02*
X4767442Y-14853827D01*
X4767442Y-14853827D02*
X4767442Y-14958589D01*
X4767442Y-14853827D02*
X4776965Y-14834779D01*
X4776965Y-14834779D02*
X4796013Y-14825255D01*
X4796013Y-14825255D02*
X4824584Y-14825255D01*
X4824584Y-14825255D02*
X4843632Y-14834779D01*
X4843632Y-14834779D02*
X4853156Y-14853827D01*
X4853156Y-14853827D02*
X4853156Y-14958589D01*
X4948394Y-14958589D02*
X4948394Y-14825255D01*
X4948394Y-14844303D02*
X4957918Y-14834779D01*
X4957918Y-14834779D02*
X4976965Y-14825255D01*
X4976965Y-14825255D02*
X5005537Y-14825255D01*
X5005537Y-14825255D02*
X5024585Y-14834779D01*
X5024585Y-14834779D02*
X5034108Y-14853827D01*
X5034108Y-14853827D02*
X5034108Y-14958589D01*
X5034108Y-14853827D02*
X5043632Y-14834779D01*
X5043632Y-14834779D02*
X5062680Y-14825255D01*
X5062680Y-14825255D02*
X5091251Y-14825255D01*
X5091251Y-14825255D02*
X5110299Y-14834779D01*
X5110299Y-14834779D02*
X5119823Y-14853827D01*
X5119823Y-14853827D02*
X5119823Y-14958589D01*
X5510299Y-14749065D02*
X5338870Y-15006208D01*
X5767442Y-14758589D02*
X5786489Y-14758589D01*
X5786489Y-14758589D02*
X5805537Y-14768112D01*
X5805537Y-14768112D02*
X5815061Y-14777636D01*
X5815061Y-14777636D02*
X5824585Y-14796684D01*
X5824585Y-14796684D02*
X5834108Y-14834779D01*
X5834108Y-14834779D02*
X5834108Y-14882398D01*
X5834108Y-14882398D02*
X5824585Y-14920493D01*
X5824585Y-14920493D02*
X5815061Y-14939541D01*
X5815061Y-14939541D02*
X5805537Y-14949065D01*
X5805537Y-14949065D02*
X5786489Y-14958589D01*
X5786489Y-14958589D02*
X5767442Y-14958589D01*
X5767442Y-14958589D02*
X5748394Y-14949065D01*
X5748394Y-14949065D02*
X5738870Y-14939541D01*
X5738870Y-14939541D02*
X5729346Y-14920493D01*
X5729346Y-14920493D02*
X5719823Y-14882398D01*
X5719823Y-14882398D02*
X5719823Y-14834779D01*
X5719823Y-14834779D02*
X5729346Y-14796684D01*
X5729346Y-14796684D02*
X5738870Y-14777636D01*
X5738870Y-14777636D02*
X5748394Y-14768112D01*
X5748394Y-14768112D02*
X5767442Y-14758589D01*
X5919823Y-14939541D02*
X5929346Y-14949065D01*
X5929346Y-14949065D02*
X5919823Y-14958589D01*
X5919823Y-14958589D02*
X5910299Y-14949065D01*
X5910299Y-14949065D02*
X5919823Y-14939541D01*
X5919823Y-14939541D02*
X5919823Y-14958589D01*
X6053156Y-14758589D02*
X6072204Y-14758589D01*
X6072204Y-14758589D02*
X6091251Y-14768112D01*
X6091251Y-14768112D02*
X6100775Y-14777636D01*
X6100775Y-14777636D02*
X6110299Y-14796684D01*
X6110299Y-14796684D02*
X6119823Y-14834779D01*
X6119823Y-14834779D02*
X6119823Y-14882398D01*
X6119823Y-14882398D02*
X6110299Y-14920493D01*
X6110299Y-14920493D02*
X6100775Y-14939541D01*
X6100775Y-14939541D02*
X6091251Y-14949065D01*
X6091251Y-14949065D02*
X6072204Y-14958589D01*
X6072204Y-14958589D02*
X6053156Y-14958589D01*
X6053156Y-14958589D02*
X6034108Y-14949065D01*
X6034108Y-14949065D02*
X6024585Y-14939541D01*
X6024585Y-14939541D02*
X6015061Y-14920493D01*
X6015061Y-14920493D02*
X6005537Y-14882398D01*
X6005537Y-14882398D02*
X6005537Y-14834779D01*
X6005537Y-14834779D02*
X6015061Y-14796684D01*
X6015061Y-14796684D02*
X6024585Y-14777636D01*
X6024585Y-14777636D02*
X6034108Y-14768112D01*
X6034108Y-14768112D02*
X6053156Y-14758589D01*
X6186489Y-14758589D02*
X6310299Y-14758589D01*
X6310299Y-14758589D02*
X6243632Y-14834779D01*
X6243632Y-14834779D02*
X6272204Y-14834779D01*
X6272204Y-14834779D02*
X6291251Y-14844303D01*
X6291251Y-14844303D02*
X6300775Y-14853827D01*
X6300775Y-14853827D02*
X6310299Y-14872874D01*
X6310299Y-14872874D02*
X6310299Y-14920493D01*
X6310299Y-14920493D02*
X6300775Y-14939541D01*
X6300775Y-14939541D02*
X6291251Y-14949065D01*
X6291251Y-14949065D02*
X6272204Y-14958589D01*
X6272204Y-14958589D02*
X6215061Y-14958589D01*
X6215061Y-14958589D02*
X6196013Y-14949065D01*
X6196013Y-14949065D02*
X6186489Y-14939541D01*
X6491251Y-14758589D02*
X6396013Y-14758589D01*
X6396013Y-14758589D02*
X6386489Y-14853827D01*
X6386489Y-14853827D02*
X6396013Y-14844303D01*
X6396013Y-14844303D02*
X6415061Y-14834779D01*
X6415061Y-14834779D02*
X6462680Y-14834779D01*
X6462680Y-14834779D02*
X6481727Y-14844303D01*
X6481727Y-14844303D02*
X6491251Y-14853827D01*
X6491251Y-14853827D02*
X6500775Y-14872874D01*
X6500775Y-14872874D02*
X6500775Y-14920493D01*
X6500775Y-14920493D02*
X6491251Y-14939541D01*
X6491251Y-14939541D02*
X6481727Y-14949065D01*
X6481727Y-14949065D02*
X6462680Y-14958589D01*
X6462680Y-14958589D02*
X6415061Y-14958589D01*
X6415061Y-14958589D02*
X6396013Y-14949065D01*
X6396013Y-14949065D02*
X6386489Y-14939541D01*
X6672204Y-14825255D02*
X6672204Y-14958589D01*
X6624585Y-14749065D02*
X6576966Y-14891922D01*
X6576966Y-14891922D02*
X6700775Y-14891922D01*
X6767442Y-14758589D02*
X6767442Y-14796684D01*
X6843632Y-14758589D02*
X6843632Y-14796684D01*
X7138870Y-15034779D02*
X7129347Y-15025255D01*
X7129347Y-15025255D02*
X7110299Y-14996684D01*
X7110299Y-14996684D02*
X7100775Y-14977636D01*
X7100775Y-14977636D02*
X7091251Y-14949065D01*
X7091251Y-14949065D02*
X7081728Y-14901446D01*
X7081728Y-14901446D02*
X7081728Y-14863351D01*
X7081728Y-14863351D02*
X7091251Y-14815731D01*
X7091251Y-14815731D02*
X7100775Y-14787160D01*
X7100775Y-14787160D02*
X7110299Y-14768112D01*
X7110299Y-14768112D02*
X7129347Y-14739541D01*
X7129347Y-14739541D02*
X7138870Y-14730017D01*
X7196013Y-14758589D02*
X7319823Y-14758589D01*
X7319823Y-14758589D02*
X7253156Y-14834779D01*
X7253156Y-14834779D02*
X7281728Y-14834779D01*
X7281728Y-14834779D02*
X7300775Y-14844303D01*
X7300775Y-14844303D02*
X7310299Y-14853827D01*
X7310299Y-14853827D02*
X7319823Y-14872874D01*
X7319823Y-14872874D02*
X7319823Y-14920493D01*
X7319823Y-14920493D02*
X7310299Y-14939541D01*
X7310299Y-14939541D02*
X7300775Y-14949065D01*
X7300775Y-14949065D02*
X7281728Y-14958589D01*
X7281728Y-14958589D02*
X7224585Y-14958589D01*
X7224585Y-14958589D02*
X7205537Y-14949065D01*
X7205537Y-14949065D02*
X7196013Y-14939541D01*
X7396013Y-14777636D02*
X7405537Y-14768112D01*
X7405537Y-14768112D02*
X7424585Y-14758589D01*
X7424585Y-14758589D02*
X7472204Y-14758589D01*
X7472204Y-14758589D02*
X7491251Y-14768112D01*
X7491251Y-14768112D02*
X7500775Y-14777636D01*
X7500775Y-14777636D02*
X7510299Y-14796684D01*
X7510299Y-14796684D02*
X7510299Y-14815731D01*
X7510299Y-14815731D02*
X7500775Y-14844303D01*
X7500775Y-14844303D02*
X7386489Y-14958589D01*
X7386489Y-14958589D02*
X7510299Y-14958589D01*
X7748394Y-14958589D02*
X7748394Y-14758589D01*
X7834109Y-14958589D02*
X7834109Y-14853827D01*
X7834109Y-14853827D02*
X7824585Y-14834779D01*
X7824585Y-14834779D02*
X7805537Y-14825255D01*
X7805537Y-14825255D02*
X7776966Y-14825255D01*
X7776966Y-14825255D02*
X7757918Y-14834779D01*
X7757918Y-14834779D02*
X7748394Y-14844303D01*
X7957918Y-14958589D02*
X7938870Y-14949065D01*
X7938870Y-14949065D02*
X7929347Y-14939541D01*
X7929347Y-14939541D02*
X7919823Y-14920493D01*
X7919823Y-14920493D02*
X7919823Y-14863351D01*
X7919823Y-14863351D02*
X7929347Y-14844303D01*
X7929347Y-14844303D02*
X7938870Y-14834779D01*
X7938870Y-14834779D02*
X7957918Y-14825255D01*
X7957918Y-14825255D02*
X7986490Y-14825255D01*
X7986490Y-14825255D02*
X8005537Y-14834779D01*
X8005537Y-14834779D02*
X8015061Y-14844303D01*
X8015061Y-14844303D02*
X8024585Y-14863351D01*
X8024585Y-14863351D02*
X8024585Y-14920493D01*
X8024585Y-14920493D02*
X8015061Y-14939541D01*
X8015061Y-14939541D02*
X8005537Y-14949065D01*
X8005537Y-14949065D02*
X7986490Y-14958589D01*
X7986490Y-14958589D02*
X7957918Y-14958589D01*
X8138870Y-14958589D02*
X8119823Y-14949065D01*
X8119823Y-14949065D02*
X8110299Y-14930017D01*
X8110299Y-14930017D02*
X8110299Y-14758589D01*
X8291251Y-14949065D02*
X8272204Y-14958589D01*
X8272204Y-14958589D02*
X8234109Y-14958589D01*
X8234109Y-14958589D02*
X8215061Y-14949065D01*
X8215061Y-14949065D02*
X8205537Y-14930017D01*
X8205537Y-14930017D02*
X8205537Y-14853827D01*
X8205537Y-14853827D02*
X8215061Y-14834779D01*
X8215061Y-14834779D02*
X8234109Y-14825255D01*
X8234109Y-14825255D02*
X8272204Y-14825255D01*
X8272204Y-14825255D02*
X8291251Y-14834779D01*
X8291251Y-14834779D02*
X8300775Y-14853827D01*
X8300775Y-14853827D02*
X8300775Y-14872874D01*
X8300775Y-14872874D02*
X8205537Y-14891922D01*
X8376966Y-14949065D02*
X8396013Y-14958589D01*
X8396013Y-14958589D02*
X8434109Y-14958589D01*
X8434109Y-14958589D02*
X8453156Y-14949065D01*
X8453156Y-14949065D02*
X8462680Y-14930017D01*
X8462680Y-14930017D02*
X8462680Y-14920493D01*
X8462680Y-14920493D02*
X8453156Y-14901446D01*
X8453156Y-14901446D02*
X8434109Y-14891922D01*
X8434109Y-14891922D02*
X8405537Y-14891922D01*
X8405537Y-14891922D02*
X8386490Y-14882398D01*
X8386490Y-14882398D02*
X8376966Y-14863351D01*
X8376966Y-14863351D02*
X8376966Y-14853827D01*
X8376966Y-14853827D02*
X8386490Y-14834779D01*
X8386490Y-14834779D02*
X8405537Y-14825255D01*
X8405537Y-14825255D02*
X8434109Y-14825255D01*
X8434109Y-14825255D02*
X8453156Y-14834779D01*
X8529347Y-15034779D02*
X8538871Y-15025255D01*
X8538871Y-15025255D02*
X8557918Y-14996684D01*
X8557918Y-14996684D02*
X8567442Y-14977636D01*
X8567442Y-14977636D02*
X8576966Y-14949065D01*
X8576966Y-14949065D02*
X8586490Y-14901446D01*
X8586490Y-14901446D02*
X8586490Y-14863351D01*
X8586490Y-14863351D02*
X8576966Y-14815731D01*
X8576966Y-14815731D02*
X8567442Y-14787160D01*
X8567442Y-14787160D02*
X8557918Y-14768112D01*
X8557918Y-14768112D02*
X8538871Y-14739541D01*
X8538871Y-14739541D02*
X8529347Y-14730017D01*
D13*
X3541841Y-15184138D02*
X3541841Y-15078071D01*
X3435774Y-15078071D01*
X3435774Y-15184138D01*
X3541841Y-15184138D01*
D11*
X3929346Y-15222589D02*
X3815061Y-15222589D01*
X3872203Y-15222589D02*
X3872203Y-15022589D01*
X3872203Y-15022589D02*
X3853156Y-15051160D01*
X3853156Y-15051160D02*
X3834108Y-15070208D01*
X3834108Y-15070208D02*
X3815061Y-15079731D01*
X4015061Y-15203541D02*
X4024584Y-15213065D01*
X4024584Y-15213065D02*
X4015061Y-15222589D01*
X4015061Y-15222589D02*
X4005537Y-15213065D01*
X4005537Y-15213065D02*
X4015061Y-15203541D01*
X4015061Y-15203541D02*
X4015061Y-15222589D01*
X4205537Y-15022589D02*
X4110299Y-15022589D01*
X4110299Y-15022589D02*
X4100775Y-15117827D01*
X4100775Y-15117827D02*
X4110299Y-15108303D01*
X4110299Y-15108303D02*
X4129346Y-15098779D01*
X4129346Y-15098779D02*
X4176965Y-15098779D01*
X4176965Y-15098779D02*
X4196013Y-15108303D01*
X4196013Y-15108303D02*
X4205537Y-15117827D01*
X4205537Y-15117827D02*
X4215061Y-15136874D01*
X4215061Y-15136874D02*
X4215061Y-15184493D01*
X4215061Y-15184493D02*
X4205537Y-15203541D01*
X4205537Y-15203541D02*
X4196013Y-15213065D01*
X4196013Y-15213065D02*
X4176965Y-15222589D01*
X4176965Y-15222589D02*
X4129346Y-15222589D01*
X4129346Y-15222589D02*
X4110299Y-15213065D01*
X4110299Y-15213065D02*
X4100775Y-15203541D01*
X4338870Y-15022589D02*
X4357918Y-15022589D01*
X4357918Y-15022589D02*
X4376965Y-15032112D01*
X4376965Y-15032112D02*
X4386489Y-15041636D01*
X4386489Y-15041636D02*
X4396013Y-15060684D01*
X4396013Y-15060684D02*
X4405537Y-15098779D01*
X4405537Y-15098779D02*
X4405537Y-15146398D01*
X4405537Y-15146398D02*
X4396013Y-15184493D01*
X4396013Y-15184493D02*
X4386489Y-15203541D01*
X4386489Y-15203541D02*
X4376965Y-15213065D01*
X4376965Y-15213065D02*
X4357918Y-15222589D01*
X4357918Y-15222589D02*
X4338870Y-15222589D01*
X4338870Y-15222589D02*
X4319823Y-15213065D01*
X4319823Y-15213065D02*
X4310299Y-15203541D01*
X4310299Y-15203541D02*
X4300775Y-15184493D01*
X4300775Y-15184493D02*
X4291251Y-15146398D01*
X4291251Y-15146398D02*
X4291251Y-15098779D01*
X4291251Y-15098779D02*
X4300775Y-15060684D01*
X4300775Y-15060684D02*
X4310299Y-15041636D01*
X4310299Y-15041636D02*
X4319823Y-15032112D01*
X4319823Y-15032112D02*
X4338870Y-15022589D01*
X4529346Y-15022589D02*
X4548394Y-15022589D01*
X4548394Y-15022589D02*
X4567442Y-15032112D01*
X4567442Y-15032112D02*
X4576965Y-15041636D01*
X4576965Y-15041636D02*
X4586489Y-15060684D01*
X4586489Y-15060684D02*
X4596013Y-15098779D01*
X4596013Y-15098779D02*
X4596013Y-15146398D01*
X4596013Y-15146398D02*
X4586489Y-15184493D01*
X4586489Y-15184493D02*
X4576965Y-15203541D01*
X4576965Y-15203541D02*
X4567442Y-15213065D01*
X4567442Y-15213065D02*
X4548394Y-15222589D01*
X4548394Y-15222589D02*
X4529346Y-15222589D01*
X4529346Y-15222589D02*
X4510299Y-15213065D01*
X4510299Y-15213065D02*
X4500775Y-15203541D01*
X4500775Y-15203541D02*
X4491251Y-15184493D01*
X4491251Y-15184493D02*
X4481727Y-15146398D01*
X4481727Y-15146398D02*
X4481727Y-15098779D01*
X4481727Y-15098779D02*
X4491251Y-15060684D01*
X4491251Y-15060684D02*
X4500775Y-15041636D01*
X4500775Y-15041636D02*
X4510299Y-15032112D01*
X4510299Y-15032112D02*
X4529346Y-15022589D01*
X4681727Y-15222589D02*
X4681727Y-15089255D01*
X4681727Y-15108303D02*
X4691251Y-15098779D01*
X4691251Y-15098779D02*
X4710299Y-15089255D01*
X4710299Y-15089255D02*
X4738870Y-15089255D01*
X4738870Y-15089255D02*
X4757918Y-15098779D01*
X4757918Y-15098779D02*
X4767442Y-15117827D01*
X4767442Y-15117827D02*
X4767442Y-15222589D01*
X4767442Y-15117827D02*
X4776965Y-15098779D01*
X4776965Y-15098779D02*
X4796013Y-15089255D01*
X4796013Y-15089255D02*
X4824584Y-15089255D01*
X4824584Y-15089255D02*
X4843632Y-15098779D01*
X4843632Y-15098779D02*
X4853156Y-15117827D01*
X4853156Y-15117827D02*
X4853156Y-15222589D01*
X4948394Y-15222589D02*
X4948394Y-15089255D01*
X4948394Y-15108303D02*
X4957918Y-15098779D01*
X4957918Y-15098779D02*
X4976965Y-15089255D01*
X4976965Y-15089255D02*
X5005537Y-15089255D01*
X5005537Y-15089255D02*
X5024585Y-15098779D01*
X5024585Y-15098779D02*
X5034108Y-15117827D01*
X5034108Y-15117827D02*
X5034108Y-15222589D01*
X5034108Y-15117827D02*
X5043632Y-15098779D01*
X5043632Y-15098779D02*
X5062680Y-15089255D01*
X5062680Y-15089255D02*
X5091251Y-15089255D01*
X5091251Y-15089255D02*
X5110299Y-15098779D01*
X5110299Y-15098779D02*
X5119823Y-15117827D01*
X5119823Y-15117827D02*
X5119823Y-15222589D01*
X5510299Y-15013065D02*
X5338870Y-15270208D01*
X5767442Y-15022589D02*
X5786489Y-15022589D01*
X5786489Y-15022589D02*
X5805537Y-15032112D01*
X5805537Y-15032112D02*
X5815061Y-15041636D01*
X5815061Y-15041636D02*
X5824585Y-15060684D01*
X5824585Y-15060684D02*
X5834108Y-15098779D01*
X5834108Y-15098779D02*
X5834108Y-15146398D01*
X5834108Y-15146398D02*
X5824585Y-15184493D01*
X5824585Y-15184493D02*
X5815061Y-15203541D01*
X5815061Y-15203541D02*
X5805537Y-15213065D01*
X5805537Y-15213065D02*
X5786489Y-15222589D01*
X5786489Y-15222589D02*
X5767442Y-15222589D01*
X5767442Y-15222589D02*
X5748394Y-15213065D01*
X5748394Y-15213065D02*
X5738870Y-15203541D01*
X5738870Y-15203541D02*
X5729346Y-15184493D01*
X5729346Y-15184493D02*
X5719823Y-15146398D01*
X5719823Y-15146398D02*
X5719823Y-15098779D01*
X5719823Y-15098779D02*
X5729346Y-15060684D01*
X5729346Y-15060684D02*
X5738870Y-15041636D01*
X5738870Y-15041636D02*
X5748394Y-15032112D01*
X5748394Y-15032112D02*
X5767442Y-15022589D01*
X5919823Y-15203541D02*
X5929346Y-15213065D01*
X5929346Y-15213065D02*
X5919823Y-15222589D01*
X5919823Y-15222589D02*
X5910299Y-15213065D01*
X5910299Y-15213065D02*
X5919823Y-15203541D01*
X5919823Y-15203541D02*
X5919823Y-15222589D01*
X6053156Y-15022589D02*
X6072204Y-15022589D01*
X6072204Y-15022589D02*
X6091251Y-15032112D01*
X6091251Y-15032112D02*
X6100775Y-15041636D01*
X6100775Y-15041636D02*
X6110299Y-15060684D01*
X6110299Y-15060684D02*
X6119823Y-15098779D01*
X6119823Y-15098779D02*
X6119823Y-15146398D01*
X6119823Y-15146398D02*
X6110299Y-15184493D01*
X6110299Y-15184493D02*
X6100775Y-15203541D01*
X6100775Y-15203541D02*
X6091251Y-15213065D01*
X6091251Y-15213065D02*
X6072204Y-15222589D01*
X6072204Y-15222589D02*
X6053156Y-15222589D01*
X6053156Y-15222589D02*
X6034108Y-15213065D01*
X6034108Y-15213065D02*
X6024585Y-15203541D01*
X6024585Y-15203541D02*
X6015061Y-15184493D01*
X6015061Y-15184493D02*
X6005537Y-15146398D01*
X6005537Y-15146398D02*
X6005537Y-15098779D01*
X6005537Y-15098779D02*
X6015061Y-15060684D01*
X6015061Y-15060684D02*
X6024585Y-15041636D01*
X6024585Y-15041636D02*
X6034108Y-15032112D01*
X6034108Y-15032112D02*
X6053156Y-15022589D01*
X6300775Y-15022589D02*
X6205537Y-15022589D01*
X6205537Y-15022589D02*
X6196013Y-15117827D01*
X6196013Y-15117827D02*
X6205537Y-15108303D01*
X6205537Y-15108303D02*
X6224585Y-15098779D01*
X6224585Y-15098779D02*
X6272204Y-15098779D01*
X6272204Y-15098779D02*
X6291251Y-15108303D01*
X6291251Y-15108303D02*
X6300775Y-15117827D01*
X6300775Y-15117827D02*
X6310299Y-15136874D01*
X6310299Y-15136874D02*
X6310299Y-15184493D01*
X6310299Y-15184493D02*
X6300775Y-15203541D01*
X6300775Y-15203541D02*
X6291251Y-15213065D01*
X6291251Y-15213065D02*
X6272204Y-15222589D01*
X6272204Y-15222589D02*
X6224585Y-15222589D01*
X6224585Y-15222589D02*
X6205537Y-15213065D01*
X6205537Y-15213065D02*
X6196013Y-15203541D01*
X6405537Y-15222589D02*
X6443632Y-15222589D01*
X6443632Y-15222589D02*
X6462680Y-15213065D01*
X6462680Y-15213065D02*
X6472204Y-15203541D01*
X6472204Y-15203541D02*
X6491251Y-15174970D01*
X6491251Y-15174970D02*
X6500775Y-15136874D01*
X6500775Y-15136874D02*
X6500775Y-15060684D01*
X6500775Y-15060684D02*
X6491251Y-15041636D01*
X6491251Y-15041636D02*
X6481727Y-15032112D01*
X6481727Y-15032112D02*
X6462680Y-15022589D01*
X6462680Y-15022589D02*
X6424585Y-15022589D01*
X6424585Y-15022589D02*
X6405537Y-15032112D01*
X6405537Y-15032112D02*
X6396013Y-15041636D01*
X6396013Y-15041636D02*
X6386489Y-15060684D01*
X6386489Y-15060684D02*
X6386489Y-15108303D01*
X6386489Y-15108303D02*
X6396013Y-15127351D01*
X6396013Y-15127351D02*
X6405537Y-15136874D01*
X6405537Y-15136874D02*
X6424585Y-15146398D01*
X6424585Y-15146398D02*
X6462680Y-15146398D01*
X6462680Y-15146398D02*
X6481727Y-15136874D01*
X6481727Y-15136874D02*
X6491251Y-15127351D01*
X6491251Y-15127351D02*
X6500775Y-15108303D01*
X6691251Y-15222589D02*
X6576966Y-15222589D01*
X6634108Y-15222589D02*
X6634108Y-15022589D01*
X6634108Y-15022589D02*
X6615061Y-15051160D01*
X6615061Y-15051160D02*
X6596013Y-15070208D01*
X6596013Y-15070208D02*
X6576966Y-15079731D01*
X6767442Y-15022589D02*
X6767442Y-15060684D01*
X6843632Y-15022589D02*
X6843632Y-15060684D01*
X7138870Y-15298779D02*
X7129347Y-15289255D01*
X7129347Y-15289255D02*
X7110299Y-15260684D01*
X7110299Y-15260684D02*
X7100775Y-15241636D01*
X7100775Y-15241636D02*
X7091251Y-15213065D01*
X7091251Y-15213065D02*
X7081728Y-15165446D01*
X7081728Y-15165446D02*
X7081728Y-15127351D01*
X7081728Y-15127351D02*
X7091251Y-15079731D01*
X7091251Y-15079731D02*
X7100775Y-15051160D01*
X7100775Y-15051160D02*
X7110299Y-15032112D01*
X7110299Y-15032112D02*
X7129347Y-15003541D01*
X7129347Y-15003541D02*
X7138870Y-14994017D01*
X7196013Y-15022589D02*
X7319823Y-15022589D01*
X7319823Y-15022589D02*
X7253156Y-15098779D01*
X7253156Y-15098779D02*
X7281728Y-15098779D01*
X7281728Y-15098779D02*
X7300775Y-15108303D01*
X7300775Y-15108303D02*
X7310299Y-15117827D01*
X7310299Y-15117827D02*
X7319823Y-15136874D01*
X7319823Y-15136874D02*
X7319823Y-15184493D01*
X7319823Y-15184493D02*
X7310299Y-15203541D01*
X7310299Y-15203541D02*
X7300775Y-15213065D01*
X7300775Y-15213065D02*
X7281728Y-15222589D01*
X7281728Y-15222589D02*
X7224585Y-15222589D01*
X7224585Y-15222589D02*
X7205537Y-15213065D01*
X7205537Y-15213065D02*
X7196013Y-15203541D01*
X7396013Y-15041636D02*
X7405537Y-15032112D01*
X7405537Y-15032112D02*
X7424585Y-15022589D01*
X7424585Y-15022589D02*
X7472204Y-15022589D01*
X7472204Y-15022589D02*
X7491251Y-15032112D01*
X7491251Y-15032112D02*
X7500775Y-15041636D01*
X7500775Y-15041636D02*
X7510299Y-15060684D01*
X7510299Y-15060684D02*
X7510299Y-15079731D01*
X7510299Y-15079731D02*
X7500775Y-15108303D01*
X7500775Y-15108303D02*
X7386489Y-15222589D01*
X7386489Y-15222589D02*
X7510299Y-15222589D01*
X7748394Y-15222589D02*
X7748394Y-15022589D01*
X7834109Y-15222589D02*
X7834109Y-15117827D01*
X7834109Y-15117827D02*
X7824585Y-15098779D01*
X7824585Y-15098779D02*
X7805537Y-15089255D01*
X7805537Y-15089255D02*
X7776966Y-15089255D01*
X7776966Y-15089255D02*
X7757918Y-15098779D01*
X7757918Y-15098779D02*
X7748394Y-15108303D01*
X7957918Y-15222589D02*
X7938870Y-15213065D01*
X7938870Y-15213065D02*
X7929347Y-15203541D01*
X7929347Y-15203541D02*
X7919823Y-15184493D01*
X7919823Y-15184493D02*
X7919823Y-15127351D01*
X7919823Y-15127351D02*
X7929347Y-15108303D01*
X7929347Y-15108303D02*
X7938870Y-15098779D01*
X7938870Y-15098779D02*
X7957918Y-15089255D01*
X7957918Y-15089255D02*
X7986490Y-15089255D01*
X7986490Y-15089255D02*
X8005537Y-15098779D01*
X8005537Y-15098779D02*
X8015061Y-15108303D01*
X8015061Y-15108303D02*
X8024585Y-15127351D01*
X8024585Y-15127351D02*
X8024585Y-15184493D01*
X8024585Y-15184493D02*
X8015061Y-15203541D01*
X8015061Y-15203541D02*
X8005537Y-15213065D01*
X8005537Y-15213065D02*
X7986490Y-15222589D01*
X7986490Y-15222589D02*
X7957918Y-15222589D01*
X8138870Y-15222589D02*
X8119823Y-15213065D01*
X8119823Y-15213065D02*
X8110299Y-15194017D01*
X8110299Y-15194017D02*
X8110299Y-15022589D01*
X8291251Y-15213065D02*
X8272204Y-15222589D01*
X8272204Y-15222589D02*
X8234109Y-15222589D01*
X8234109Y-15222589D02*
X8215061Y-15213065D01*
X8215061Y-15213065D02*
X8205537Y-15194017D01*
X8205537Y-15194017D02*
X8205537Y-15117827D01*
X8205537Y-15117827D02*
X8215061Y-15098779D01*
X8215061Y-15098779D02*
X8234109Y-15089255D01*
X8234109Y-15089255D02*
X8272204Y-15089255D01*
X8272204Y-15089255D02*
X8291251Y-15098779D01*
X8291251Y-15098779D02*
X8300775Y-15117827D01*
X8300775Y-15117827D02*
X8300775Y-15136874D01*
X8300775Y-15136874D02*
X8205537Y-15155922D01*
X8376966Y-15213065D02*
X8396013Y-15222589D01*
X8396013Y-15222589D02*
X8434109Y-15222589D01*
X8434109Y-15222589D02*
X8453156Y-15213065D01*
X8453156Y-15213065D02*
X8462680Y-15194017D01*
X8462680Y-15194017D02*
X8462680Y-15184493D01*
X8462680Y-15184493D02*
X8453156Y-15165446D01*
X8453156Y-15165446D02*
X8434109Y-15155922D01*
X8434109Y-15155922D02*
X8405537Y-15155922D01*
X8405537Y-15155922D02*
X8386490Y-15146398D01*
X8386490Y-15146398D02*
X8376966Y-15127351D01*
X8376966Y-15127351D02*
X8376966Y-15117827D01*
X8376966Y-15117827D02*
X8386490Y-15098779D01*
X8386490Y-15098779D02*
X8405537Y-15089255D01*
X8405537Y-15089255D02*
X8434109Y-15089255D01*
X8434109Y-15089255D02*
X8453156Y-15098779D01*
X8529347Y-15298779D02*
X8538871Y-15289255D01*
X8538871Y-15289255D02*
X8557918Y-15260684D01*
X8557918Y-15260684D02*
X8567442Y-15241636D01*
X8567442Y-15241636D02*
X8576966Y-15213065D01*
X8576966Y-15213065D02*
X8586490Y-15165446D01*
X8586490Y-15165446D02*
X8586490Y-15127351D01*
X8586490Y-15127351D02*
X8576966Y-15079731D01*
X8576966Y-15079731D02*
X8567442Y-15051160D01*
X8567442Y-15051160D02*
X8557918Y-15032112D01*
X8557918Y-15032112D02*
X8538871Y-15003541D01*
X8538871Y-15003541D02*
X8529347Y-14994017D01*
D14*
X3478808Y-15486105D02*
X3563808Y-15401105D01*
X3478808Y-15316105D01*
X3393808Y-15401105D01*
X3478808Y-15486105D01*
D11*
X3929346Y-15492589D02*
X3815061Y-15492589D01*
X3872203Y-15492589D02*
X3872203Y-15292589D01*
X3872203Y-15292589D02*
X3853156Y-15321160D01*
X3853156Y-15321160D02*
X3834108Y-15340208D01*
X3834108Y-15340208D02*
X3815061Y-15349731D01*
X4015061Y-15473541D02*
X4024584Y-15483065D01*
X4024584Y-15483065D02*
X4015061Y-15492589D01*
X4015061Y-15492589D02*
X4005537Y-15483065D01*
X4005537Y-15483065D02*
X4015061Y-15473541D01*
X4015061Y-15473541D02*
X4015061Y-15492589D01*
X4091251Y-15292589D02*
X4224584Y-15292589D01*
X4224584Y-15292589D02*
X4138870Y-15492589D01*
X4338870Y-15292589D02*
X4357918Y-15292589D01*
X4357918Y-15292589D02*
X4376965Y-15302112D01*
X4376965Y-15302112D02*
X4386489Y-15311636D01*
X4386489Y-15311636D02*
X4396013Y-15330684D01*
X4396013Y-15330684D02*
X4405537Y-15368779D01*
X4405537Y-15368779D02*
X4405537Y-15416398D01*
X4405537Y-15416398D02*
X4396013Y-15454493D01*
X4396013Y-15454493D02*
X4386489Y-15473541D01*
X4386489Y-15473541D02*
X4376965Y-15483065D01*
X4376965Y-15483065D02*
X4357918Y-15492589D01*
X4357918Y-15492589D02*
X4338870Y-15492589D01*
X4338870Y-15492589D02*
X4319823Y-15483065D01*
X4319823Y-15483065D02*
X4310299Y-15473541D01*
X4310299Y-15473541D02*
X4300775Y-15454493D01*
X4300775Y-15454493D02*
X4291251Y-15416398D01*
X4291251Y-15416398D02*
X4291251Y-15368779D01*
X4291251Y-15368779D02*
X4300775Y-15330684D01*
X4300775Y-15330684D02*
X4310299Y-15311636D01*
X4310299Y-15311636D02*
X4319823Y-15302112D01*
X4319823Y-15302112D02*
X4338870Y-15292589D01*
X4529346Y-15292589D02*
X4548394Y-15292589D01*
X4548394Y-15292589D02*
X4567442Y-15302112D01*
X4567442Y-15302112D02*
X4576965Y-15311636D01*
X4576965Y-15311636D02*
X4586489Y-15330684D01*
X4586489Y-15330684D02*
X4596013Y-15368779D01*
X4596013Y-15368779D02*
X4596013Y-15416398D01*
X4596013Y-15416398D02*
X4586489Y-15454493D01*
X4586489Y-15454493D02*
X4576965Y-15473541D01*
X4576965Y-15473541D02*
X4567442Y-15483065D01*
X4567442Y-15483065D02*
X4548394Y-15492589D01*
X4548394Y-15492589D02*
X4529346Y-15492589D01*
X4529346Y-15492589D02*
X4510299Y-15483065D01*
X4510299Y-15483065D02*
X4500775Y-15473541D01*
X4500775Y-15473541D02*
X4491251Y-15454493D01*
X4491251Y-15454493D02*
X4481727Y-15416398D01*
X4481727Y-15416398D02*
X4481727Y-15368779D01*
X4481727Y-15368779D02*
X4491251Y-15330684D01*
X4491251Y-15330684D02*
X4500775Y-15311636D01*
X4500775Y-15311636D02*
X4510299Y-15302112D01*
X4510299Y-15302112D02*
X4529346Y-15292589D01*
X4681727Y-15492589D02*
X4681727Y-15359255D01*
X4681727Y-15378303D02*
X4691251Y-15368779D01*
X4691251Y-15368779D02*
X4710299Y-15359255D01*
X4710299Y-15359255D02*
X4738870Y-15359255D01*
X4738870Y-15359255D02*
X4757918Y-15368779D01*
X4757918Y-15368779D02*
X4767442Y-15387827D01*
X4767442Y-15387827D02*
X4767442Y-15492589D01*
X4767442Y-15387827D02*
X4776965Y-15368779D01*
X4776965Y-15368779D02*
X4796013Y-15359255D01*
X4796013Y-15359255D02*
X4824584Y-15359255D01*
X4824584Y-15359255D02*
X4843632Y-15368779D01*
X4843632Y-15368779D02*
X4853156Y-15387827D01*
X4853156Y-15387827D02*
X4853156Y-15492589D01*
X4948394Y-15492589D02*
X4948394Y-15359255D01*
X4948394Y-15378303D02*
X4957918Y-15368779D01*
X4957918Y-15368779D02*
X4976965Y-15359255D01*
X4976965Y-15359255D02*
X5005537Y-15359255D01*
X5005537Y-15359255D02*
X5024585Y-15368779D01*
X5024585Y-15368779D02*
X5034108Y-15387827D01*
X5034108Y-15387827D02*
X5034108Y-15492589D01*
X5034108Y-15387827D02*
X5043632Y-15368779D01*
X5043632Y-15368779D02*
X5062680Y-15359255D01*
X5062680Y-15359255D02*
X5091251Y-15359255D01*
X5091251Y-15359255D02*
X5110299Y-15368779D01*
X5110299Y-15368779D02*
X5119823Y-15387827D01*
X5119823Y-15387827D02*
X5119823Y-15492589D01*
X5510299Y-15283065D02*
X5338870Y-15540208D01*
X5767442Y-15292589D02*
X5786489Y-15292589D01*
X5786489Y-15292589D02*
X5805537Y-15302112D01*
X5805537Y-15302112D02*
X5815061Y-15311636D01*
X5815061Y-15311636D02*
X5824585Y-15330684D01*
X5824585Y-15330684D02*
X5834108Y-15368779D01*
X5834108Y-15368779D02*
X5834108Y-15416398D01*
X5834108Y-15416398D02*
X5824585Y-15454493D01*
X5824585Y-15454493D02*
X5815061Y-15473541D01*
X5815061Y-15473541D02*
X5805537Y-15483065D01*
X5805537Y-15483065D02*
X5786489Y-15492589D01*
X5786489Y-15492589D02*
X5767442Y-15492589D01*
X5767442Y-15492589D02*
X5748394Y-15483065D01*
X5748394Y-15483065D02*
X5738870Y-15473541D01*
X5738870Y-15473541D02*
X5729346Y-15454493D01*
X5729346Y-15454493D02*
X5719823Y-15416398D01*
X5719823Y-15416398D02*
X5719823Y-15368779D01*
X5719823Y-15368779D02*
X5729346Y-15330684D01*
X5729346Y-15330684D02*
X5738870Y-15311636D01*
X5738870Y-15311636D02*
X5748394Y-15302112D01*
X5748394Y-15302112D02*
X5767442Y-15292589D01*
X5919823Y-15473541D02*
X5929346Y-15483065D01*
X5929346Y-15483065D02*
X5919823Y-15492589D01*
X5919823Y-15492589D02*
X5910299Y-15483065D01*
X5910299Y-15483065D02*
X5919823Y-15473541D01*
X5919823Y-15473541D02*
X5919823Y-15492589D01*
X6053156Y-15292589D02*
X6072204Y-15292589D01*
X6072204Y-15292589D02*
X6091251Y-15302112D01*
X6091251Y-15302112D02*
X6100775Y-15311636D01*
X6100775Y-15311636D02*
X6110299Y-15330684D01*
X6110299Y-15330684D02*
X6119823Y-15368779D01*
X6119823Y-15368779D02*
X6119823Y-15416398D01*
X6119823Y-15416398D02*
X6110299Y-15454493D01*
X6110299Y-15454493D02*
X6100775Y-15473541D01*
X6100775Y-15473541D02*
X6091251Y-15483065D01*
X6091251Y-15483065D02*
X6072204Y-15492589D01*
X6072204Y-15492589D02*
X6053156Y-15492589D01*
X6053156Y-15492589D02*
X6034108Y-15483065D01*
X6034108Y-15483065D02*
X6024585Y-15473541D01*
X6024585Y-15473541D02*
X6015061Y-15454493D01*
X6015061Y-15454493D02*
X6005537Y-15416398D01*
X6005537Y-15416398D02*
X6005537Y-15368779D01*
X6005537Y-15368779D02*
X6015061Y-15330684D01*
X6015061Y-15330684D02*
X6024585Y-15311636D01*
X6024585Y-15311636D02*
X6034108Y-15302112D01*
X6034108Y-15302112D02*
X6053156Y-15292589D01*
X6291251Y-15292589D02*
X6253156Y-15292589D01*
X6253156Y-15292589D02*
X6234108Y-15302112D01*
X6234108Y-15302112D02*
X6224585Y-15311636D01*
X6224585Y-15311636D02*
X6205537Y-15340208D01*
X6205537Y-15340208D02*
X6196013Y-15378303D01*
X6196013Y-15378303D02*
X6196013Y-15454493D01*
X6196013Y-15454493D02*
X6205537Y-15473541D01*
X6205537Y-15473541D02*
X6215061Y-15483065D01*
X6215061Y-15483065D02*
X6234108Y-15492589D01*
X6234108Y-15492589D02*
X6272204Y-15492589D01*
X6272204Y-15492589D02*
X6291251Y-15483065D01*
X6291251Y-15483065D02*
X6300775Y-15473541D01*
X6300775Y-15473541D02*
X6310299Y-15454493D01*
X6310299Y-15454493D02*
X6310299Y-15406874D01*
X6310299Y-15406874D02*
X6300775Y-15387827D01*
X6300775Y-15387827D02*
X6291251Y-15378303D01*
X6291251Y-15378303D02*
X6272204Y-15368779D01*
X6272204Y-15368779D02*
X6234108Y-15368779D01*
X6234108Y-15368779D02*
X6215061Y-15378303D01*
X6215061Y-15378303D02*
X6205537Y-15387827D01*
X6205537Y-15387827D02*
X6196013Y-15406874D01*
X6481727Y-15292589D02*
X6443632Y-15292589D01*
X6443632Y-15292589D02*
X6424585Y-15302112D01*
X6424585Y-15302112D02*
X6415061Y-15311636D01*
X6415061Y-15311636D02*
X6396013Y-15340208D01*
X6396013Y-15340208D02*
X6386489Y-15378303D01*
X6386489Y-15378303D02*
X6386489Y-15454493D01*
X6386489Y-15454493D02*
X6396013Y-15473541D01*
X6396013Y-15473541D02*
X6405537Y-15483065D01*
X6405537Y-15483065D02*
X6424585Y-15492589D01*
X6424585Y-15492589D02*
X6462680Y-15492589D01*
X6462680Y-15492589D02*
X6481727Y-15483065D01*
X6481727Y-15483065D02*
X6491251Y-15473541D01*
X6491251Y-15473541D02*
X6500775Y-15454493D01*
X6500775Y-15454493D02*
X6500775Y-15406874D01*
X6500775Y-15406874D02*
X6491251Y-15387827D01*
X6491251Y-15387827D02*
X6481727Y-15378303D01*
X6481727Y-15378303D02*
X6462680Y-15368779D01*
X6462680Y-15368779D02*
X6424585Y-15368779D01*
X6424585Y-15368779D02*
X6405537Y-15378303D01*
X6405537Y-15378303D02*
X6396013Y-15387827D01*
X6396013Y-15387827D02*
X6386489Y-15406874D01*
X6596013Y-15492589D02*
X6634108Y-15492589D01*
X6634108Y-15492589D02*
X6653156Y-15483065D01*
X6653156Y-15483065D02*
X6662680Y-15473541D01*
X6662680Y-15473541D02*
X6681727Y-15444970D01*
X6681727Y-15444970D02*
X6691251Y-15406874D01*
X6691251Y-15406874D02*
X6691251Y-15330684D01*
X6691251Y-15330684D02*
X6681727Y-15311636D01*
X6681727Y-15311636D02*
X6672204Y-15302112D01*
X6672204Y-15302112D02*
X6653156Y-15292589D01*
X6653156Y-15292589D02*
X6615061Y-15292589D01*
X6615061Y-15292589D02*
X6596013Y-15302112D01*
X6596013Y-15302112D02*
X6586489Y-15311636D01*
X6586489Y-15311636D02*
X6576966Y-15330684D01*
X6576966Y-15330684D02*
X6576966Y-15378303D01*
X6576966Y-15378303D02*
X6586489Y-15397351D01*
X6586489Y-15397351D02*
X6596013Y-15406874D01*
X6596013Y-15406874D02*
X6615061Y-15416398D01*
X6615061Y-15416398D02*
X6653156Y-15416398D01*
X6653156Y-15416398D02*
X6672204Y-15406874D01*
X6672204Y-15406874D02*
X6681727Y-15397351D01*
X6681727Y-15397351D02*
X6691251Y-15378303D01*
X6767442Y-15292589D02*
X6767442Y-15330684D01*
X6843632Y-15292589D02*
X6843632Y-15330684D01*
X7138870Y-15568779D02*
X7129347Y-15559255D01*
X7129347Y-15559255D02*
X7110299Y-15530684D01*
X7110299Y-15530684D02*
X7100775Y-15511636D01*
X7100775Y-15511636D02*
X7091251Y-15483065D01*
X7091251Y-15483065D02*
X7081728Y-15435446D01*
X7081728Y-15435446D02*
X7081728Y-15397351D01*
X7081728Y-15397351D02*
X7091251Y-15349731D01*
X7091251Y-15349731D02*
X7100775Y-15321160D01*
X7100775Y-15321160D02*
X7110299Y-15302112D01*
X7110299Y-15302112D02*
X7129347Y-15273541D01*
X7129347Y-15273541D02*
X7138870Y-15264017D01*
X7205537Y-15311636D02*
X7215061Y-15302112D01*
X7215061Y-15302112D02*
X7234108Y-15292589D01*
X7234108Y-15292589D02*
X7281728Y-15292589D01*
X7281728Y-15292589D02*
X7300775Y-15302112D01*
X7300775Y-15302112D02*
X7310299Y-15311636D01*
X7310299Y-15311636D02*
X7319823Y-15330684D01*
X7319823Y-15330684D02*
X7319823Y-15349731D01*
X7319823Y-15349731D02*
X7310299Y-15378303D01*
X7310299Y-15378303D02*
X7196013Y-15492589D01*
X7196013Y-15492589D02*
X7319823Y-15492589D01*
X7500775Y-15292589D02*
X7405537Y-15292589D01*
X7405537Y-15292589D02*
X7396013Y-15387827D01*
X7396013Y-15387827D02*
X7405537Y-15378303D01*
X7405537Y-15378303D02*
X7424585Y-15368779D01*
X7424585Y-15368779D02*
X7472204Y-15368779D01*
X7472204Y-15368779D02*
X7491251Y-15378303D01*
X7491251Y-15378303D02*
X7500775Y-15387827D01*
X7500775Y-15387827D02*
X7510299Y-15406874D01*
X7510299Y-15406874D02*
X7510299Y-15454493D01*
X7510299Y-15454493D02*
X7500775Y-15473541D01*
X7500775Y-15473541D02*
X7491251Y-15483065D01*
X7491251Y-15483065D02*
X7472204Y-15492589D01*
X7472204Y-15492589D02*
X7424585Y-15492589D01*
X7424585Y-15492589D02*
X7405537Y-15483065D01*
X7405537Y-15483065D02*
X7396013Y-15473541D01*
X7748394Y-15492589D02*
X7748394Y-15292589D01*
X7834109Y-15492589D02*
X7834109Y-15387827D01*
X7834109Y-15387827D02*
X7824585Y-15368779D01*
X7824585Y-15368779D02*
X7805537Y-15359255D01*
X7805537Y-15359255D02*
X7776966Y-15359255D01*
X7776966Y-15359255D02*
X7757918Y-15368779D01*
X7757918Y-15368779D02*
X7748394Y-15378303D01*
X7957918Y-15492589D02*
X7938870Y-15483065D01*
X7938870Y-15483065D02*
X7929347Y-15473541D01*
X7929347Y-15473541D02*
X7919823Y-15454493D01*
X7919823Y-15454493D02*
X7919823Y-15397351D01*
X7919823Y-15397351D02*
X7929347Y-15378303D01*
X7929347Y-15378303D02*
X7938870Y-15368779D01*
X7938870Y-15368779D02*
X7957918Y-15359255D01*
X7957918Y-15359255D02*
X7986490Y-15359255D01*
X7986490Y-15359255D02*
X8005537Y-15368779D01*
X8005537Y-15368779D02*
X8015061Y-15378303D01*
X8015061Y-15378303D02*
X8024585Y-15397351D01*
X8024585Y-15397351D02*
X8024585Y-15454493D01*
X8024585Y-15454493D02*
X8015061Y-15473541D01*
X8015061Y-15473541D02*
X8005537Y-15483065D01*
X8005537Y-15483065D02*
X7986490Y-15492589D01*
X7986490Y-15492589D02*
X7957918Y-15492589D01*
X8138870Y-15492589D02*
X8119823Y-15483065D01*
X8119823Y-15483065D02*
X8110299Y-15464017D01*
X8110299Y-15464017D02*
X8110299Y-15292589D01*
X8291251Y-15483065D02*
X8272204Y-15492589D01*
X8272204Y-15492589D02*
X8234109Y-15492589D01*
X8234109Y-15492589D02*
X8215061Y-15483065D01*
X8215061Y-15483065D02*
X8205537Y-15464017D01*
X8205537Y-15464017D02*
X8205537Y-15387827D01*
X8205537Y-15387827D02*
X8215061Y-15368779D01*
X8215061Y-15368779D02*
X8234109Y-15359255D01*
X8234109Y-15359255D02*
X8272204Y-15359255D01*
X8272204Y-15359255D02*
X8291251Y-15368779D01*
X8291251Y-15368779D02*
X8300775Y-15387827D01*
X8300775Y-15387827D02*
X8300775Y-15406874D01*
X8300775Y-15406874D02*
X8205537Y-15425922D01*
X8376966Y-15483065D02*
X8396013Y-15492589D01*
X8396013Y-15492589D02*
X8434109Y-15492589D01*
X8434109Y-15492589D02*
X8453156Y-15483065D01*
X8453156Y-15483065D02*
X8462680Y-15464017D01*
X8462680Y-15464017D02*
X8462680Y-15454493D01*
X8462680Y-15454493D02*
X8453156Y-15435446D01*
X8453156Y-15435446D02*
X8434109Y-15425922D01*
X8434109Y-15425922D02*
X8405537Y-15425922D01*
X8405537Y-15425922D02*
X8386490Y-15416398D01*
X8386490Y-15416398D02*
X8376966Y-15397351D01*
X8376966Y-15397351D02*
X8376966Y-15387827D01*
X8376966Y-15387827D02*
X8386490Y-15368779D01*
X8386490Y-15368779D02*
X8405537Y-15359255D01*
X8405537Y-15359255D02*
X8434109Y-15359255D01*
X8434109Y-15359255D02*
X8453156Y-15368779D01*
X8529347Y-15568779D02*
X8538871Y-15559255D01*
X8538871Y-15559255D02*
X8557918Y-15530684D01*
X8557918Y-15530684D02*
X8567442Y-15511636D01*
X8567442Y-15511636D02*
X8576966Y-15483065D01*
X8576966Y-15483065D02*
X8586490Y-15435446D01*
X8586490Y-15435446D02*
X8586490Y-15397351D01*
X8586490Y-15397351D02*
X8576966Y-15349731D01*
X8576966Y-15349731D02*
X8567442Y-15321160D01*
X8567442Y-15321160D02*
X8557918Y-15302112D01*
X8557918Y-15302112D02*
X8538871Y-15273541D01*
X8538871Y-15273541D02*
X8529347Y-15264017D01*
M02*
